<svg preserveAspectRatio="none" width="100%" height="100%" overflow="visible" style="display: block;" viewBox="0 0 1490.29 929.227" fill="none" xmlns="http://www.w3.org/2000/svg">
<path id="Vector 26 (Stroke)" d="M65.9284 239.346C66.1226 189.901 88.3099 142.611 121.153 97.7197C147.732 61.391 179.405 29.0492 208.522 0H116.824C100.087 18.2161 83.2854 37.9179 67.9899 58.8242C31.6346 108.516 0.974816 168.625 0.075846 236.919C0.070732 236.997 0.0639748 237.068 0.060221 237.132C0.038668 237.497 0.0272735 237.795 0.0211585 237.975C0.0145791 238.168 0.0109029 238.332 0.00846323 238.452C0.00369107 238.687 0.00137216 238.883 0.000650727 239.01C-0.000806487 239.265 0.000479066 239.494 0.00162729 239.65C0.00401429 239.976 0.00886761 240.311 0.0143226 240.6C0.0197919 240.889 0.0278902 241.223 0.0377601 241.548C0.0425208 241.705 0.0495666 241.928 0.060221 242.176C0.0655273 242.299 0.0741218 242.485 0.0865882 242.705C0.0929533 242.817 0.101803 242.967 0.113932 243.143C0.125357 243.308 0.144732 243.567 0.173502 243.883C0.187104 244.032 0.206995 244.223 0.231119 244.446C4.77597 325.879 64.8193 381.823 101.019 419.33C121.774 440.834 133.718 454.884 138.241 466.466C140.033 471.054 140.022 473.843 139.547 476.027C139.014 478.475 137.195 483.265 130.418 490.522C83.1648 541.129 69.5229 615.28 70.9274 678.364C71.6451 710.598 76.2982 741.807 83.5729 768.568C90.6368 794.554 100.968 819.312 114.908 836.321C118.682 840.927 128.135 852.902 141.072 864.729C153.785 876.352 172.078 889.952 194.789 896.31C218.942 903.071 246.274 901.041 273.051 883.87C298.464 867.574 321.047 839.163 341.425 797.824C359.066 762.039 375.64 740.684 390.61 726.26C405.71 711.71 420.3 703.028 437.401 692.886L437.834 692.629C454.61 682.68 474.432 670.924 493.231 651.148C512.397 630.986 529.076 604.143 543.814 564.983C561.13 518.974 594.793 480.953 631.147 459.328C668.307 437.224 701.506 435.561 723.136 448.06C728.433 451.12 735.816 460.511 738.285 489.347C740.632 516.754 737.679 551.338 733.703 590.167C729.881 627.491 725.101 668.806 725.555 704.735C725.988 738.944 730.97 778.693 755.918 805.285L759.477 809.08L764.034 811.593C793.731 827.969 823.367 833.439 852.223 827.86C880.391 822.415 904.214 807.137 924.243 788.604C962.6 753.111 994.553 698.204 1022.54 650.115L1023.83 647.887C1054.05 595.962 1079.56 552.821 1106.22 529.623C1118.71 518.755 1128.43 515.078 1136.29 514.811C1143.87 514.553 1155.59 517.267 1172.68 531.479C1184.43 541.257 1187.22 548.344 1187.95 552.341C1188.71 556.566 1188.16 562.911 1183 572.909C1171.66 594.899 1146.4 619.596 1113.79 650.348C1083.84 678.601 1047.74 711.965 1026.63 747.117C1015.73 765.273 1007.32 786.197 1006.79 809.204C1006.24 832.977 1014.19 855.737 1030.47 876.611C1050.45 902.224 1091.42 928.832 1148.02 929.223C1205.12 929.617 1273.76 903.447 1350.45 831.909C1416.78 770.035 1438.17 709.338 1452.91 667.517L1453.59 665.596C1461.39 643.479 1465.72 632.862 1470.95 626.529C1473.43 623.525 1476.78 620.076 1490.29 620.076V554.204C1460.42 554.204 1437.11 564.06 1420.16 584.583C1405.96 601.777 1398.09 624.911 1391.47 643.685L1390.99 645.054C1377 684.706 1360.01 732.908 1305.51 783.739C1237.05 847.605 1183.87 863.597 1148.47 863.353C1112.57 863.105 1090.35 846.276 1082.41 836.096C1074.45 825.901 1072.48 817.719 1072.64 810.72C1072.82 802.954 1075.75 793.275 1083.1 781.036C1098.5 755.398 1126.62 728.807 1158.99 698.266L1160.23 697.097C1189.7 669.309 1224.15 636.809 1241.54 603.115C1250.87 585.036 1256.94 563.672 1252.76 540.6C1248.54 517.299 1234.83 497.499 1214.81 480.842C1189.5 459.788 1162.52 448.01 1134.05 448.977C1105.87 449.934 1082.21 463.198 1062.98 479.932C1026.2 511.937 994.904 566.641 966.903 614.751C936.974 666.173 909.677 712.335 879.505 740.254C864.972 753.701 851.862 760.838 839.72 763.186C829.428 765.175 817.037 764.278 801.296 756.723C796.021 748.365 791.78 732.161 791.423 703.902C791.029 672.736 795.21 636.166 799.233 596.877C803.102 559.093 806.88 518.333 803.917 483.728C801.076 450.552 791.11 411.258 756.092 391.024C705.754 361.937 645.634 374.066 597.471 402.715C548.502 431.843 504.838 481.535 482.164 541.781C469.76 574.74 457.236 593.407 445.489 605.764C433.537 618.336 420.916 626.077 403.798 636.229C386.915 646.243 366.16 658.344 344.905 678.823C323.52 699.428 302.728 727.346 282.342 768.698C264.695 804.496 248.844 821.14 237.493 828.419C227.506 834.823 219.743 834.891 212.546 832.876C203.905 830.457 194.592 824.408 185.518 816.112C176.669 808.022 170.154 799.812 165.857 794.568C160.438 787.956 153.168 773.471 147.138 751.289C141.319 729.882 137.387 703.994 136.784 676.897C135.547 621.321 148.317 567.872 178.564 535.479C191.162 521.987 200.237 506.939 203.915 490.026C207.65 472.851 205.166 456.756 199.599 442.502C189.405 416.399 167.087 392.928 148.417 373.584C106.396 330.046 68.1729 292.085 65.9284 239.346Z" fill="var(--fill-0, #FEE6F0)"/>
</svg>
