<svg preserveAspectRatio="none" width="100%" height="100%" overflow="visible" style="display: block;" viewBox="0 0 1872.54 2254.16" fill="none" xmlns="http://www.w3.org/2000/svg">
<path id="Vector 25" opacity="0.1" d="M1851.48 68.4724C1681.94 -72.5893 1555.71 259.004 1363.43 152.973C1300.64 86.0522 1160.98 261.767 1049.98 235.267C795.478 130.766 989.991 551.249 826.991 625.084C663.991 698.919 537.043 613.658 460.991 767.932C384.938 922.206 306.21 833.087 290.068 813.389C230.203 740.339 229.979 658.842 189.979 625.084C149.978 591.327 67.8787 623.467 53.4787 670.267C39.0787 717.067 18.8897 872.767 164.479 970.767C280.95 1049.17 293.444 1178.34 241.978 1242.27C190.512 1306.19 32.9906 1419.93 32.9906 1564.93M32.9906 1564.93C32.9906 1568.14 32.868 1561.66 32.9906 1564.93ZM32.9906 1564.93C38.0964 1701.15 231.991 1754.93 154.491 1837.93C76.9908 1920.93 101.666 2093.13 140.383 2140.38C156.525 2160.07 235.831 2262.47 311.884 2108.19C387.936 1953.92 458.705 2022.55 512.989 1878.31C552.978 1772.06 667.645 1702.89 739.614 1744.47C820.241 1791.06 717.156 2040.76 779.937 2107.68C972.224 2213.71 1024.2 1690.03 1193.74 1831.09C1320.83 1936.84 959.492 2057.01 1056.44 2181.29C1084.36 2217.08 1182.82 2268.16 1327.98 2132.76C1450.46 2018.51 1403.53 1912.07 1490.29 1912.07" stroke="var(--stroke-0, #50AEF6)" stroke-width="65.8722"/>
</svg>
