<svg preserveAspectRatio="none" width="100%" height="100%" overflow="visible" style="display: block;" viewBox="0 0 375.249 416.428" fill="none" xmlns="http://www.w3.org/2000/svg">
<path id="Vector 25 (Stroke)" opacity="0.1" d="M282.118 283.784C295.329 294.405 314.134 306.124 337.255 310.168C346.234 311.738 355.487 312.079 364.866 310.978V243.609C358.495 246.068 353.165 246.078 348.603 245.28C340.518 243.866 331.86 239.254 323.393 232.446C315.132 225.805 308.85 218.537 305.408 214.337C279.247 182.413 265.774 148.366 253.312 114.848C247.301 98.6811 241.01 81.2109 233.558 65.8917C225.991 50.3373 216.032 34.3496 201.087 21.7374C168.418 -5.83318 123.81 -3.36236 91.011 8.23931C58.2102 19.8417 23.2728 45.3283 11.8645 82.4053C-4.11319 134.333 -29.0459 306.207 128.866 416.428H231.068C214.873 397.861 195.461 380.565 172.737 365.269C45.0451 279.316 62.1717 142.899 74.8245 101.777C77.8162 92.0545 91.1288 78.0703 112.978 70.3419C134.829 62.6127 151.272 65.8923 158.603 72.0792C163.658 76.3455 168.727 83.2043 174.323 94.7071C180.033 106.446 185.04 120.245 191.569 137.804C204.185 171.736 220.756 214.964 254.459 256.09C259.089 261.739 268.701 272.997 282.118 283.784Z" fill="var(--fill-0, #50AEF6)"/>
</svg>
