<svg preserveAspectRatio="none" width="100%" height="100%" overflow="visible" style="display: block;" viewBox="0 0 16 16" fill="none" xmlns="http://www.w3.org/2000/svg">
<g id="Icon/forward">
<path id="Arrow 1" d="M0.666667 7.32667C0.298477 7.32667 6.43764e-08 7.62514 0 7.99333C-6.43763e-08 8.36152 0.298477 8.66 0.666667 8.66L0.666667 7.99333L0.666667 7.32667ZM15.8047 8.46474C16.0651 8.20439 16.0651 7.78228 15.8047 7.52193L11.5621 3.27929C11.3017 3.01894 10.8796 3.01894 10.6193 3.27929C10.3589 3.53964 10.3589 3.96175 10.6193 4.2221L14.3905 7.99333L10.6193 11.7646C10.3589 12.0249 10.3589 12.447 10.6193 12.7074C10.8796 12.9677 11.3017 12.9677 11.5621 12.7074L15.8047 8.46474ZM0.666667 7.99333L0.666667 8.66L15.3333 8.66L15.3333 7.99333L15.3333 7.32667L0.666667 7.32667L0.666667 7.99333Z" fill="var(--stroke-0, #0B84DF)"/>
</g>
</svg>
