<svg preserveAspectRatio="none" width="100%" height="100%" overflow="visible" style="display: block;" viewBox="0 0 26 26" fill="none" xmlns="http://www.w3.org/2000/svg">
<g id="Icon">
<path id="Vector" d="M12.4853 2.48561C12.5327 2.38969 12.6061 2.30895 12.697 2.2525C12.7879 2.19605 12.8928 2.16614 12.9998 2.16614C13.1069 2.16614 13.2118 2.19605 13.3027 2.2525C13.3936 2.30895 13.4669 2.38969 13.5144 2.48561L16.0169 7.55452C16.1818 7.88815 16.4251 8.1768 16.7261 8.39568C17.0271 8.61456 17.3766 8.75715 17.7448 8.81119L23.3413 9.63019C23.4474 9.64555 23.547 9.69028 23.6289 9.75932C23.7109 9.82836 23.7719 9.91895 23.805 10.0208C23.8382 10.1227 23.8421 10.2319 23.8165 10.3359C23.7908 10.4399 23.7366 10.5347 23.6598 10.6095L19.6125 14.5507C19.3456 14.8108 19.1459 15.1319 19.0306 15.4863C18.9153 15.8407 18.8878 16.2178 18.9506 16.5852L19.9061 22.1535C19.9248 22.2595 19.9134 22.3686 19.873 22.4684C19.8327 22.5682 19.7652 22.6547 19.6781 22.7179C19.591 22.7812 19.4879 22.8187 19.3805 22.8262C19.2732 22.8336 19.1658 22.8108 19.0708 22.7602L14.068 20.1299C13.7384 19.9568 13.3716 19.8663 12.9993 19.8663C12.627 19.8663 12.2602 19.9568 11.9306 20.1299L6.92883 22.7602C6.83386 22.8105 6.72668 22.8331 6.61949 22.8255C6.5123 22.8178 6.4094 22.7803 6.32249 22.7171C6.23558 22.6539 6.16815 22.5676 6.12788 22.4679C6.0876 22.3683 6.0761 22.2594 6.09467 22.1535L7.04908 16.5863C7.11213 16.2187 7.08482 15.8414 6.9695 15.4867C6.85418 15.1321 6.65433 14.8109 6.38717 14.5507L2.33983 10.6106C2.26248 10.5359 2.20766 10.441 2.18163 10.3366C2.15559 10.2323 2.15939 10.1227 2.19259 10.0204C2.22578 9.9181 2.28704 9.82718 2.36938 9.758C2.45173 9.68882 2.55185 9.64416 2.65833 9.62911L8.25375 8.81119C8.62236 8.75756 8.97242 8.61517 9.2738 8.39626C9.57518 8.17735 9.81885 7.88848 9.98383 7.55452L12.4853 2.48561Z" fill="var(--fill-0, #A8DC18)" stroke="var(--stroke-0, #A8DC18)" stroke-width="2.16667" stroke-linecap="round" stroke-linejoin="round"/>
</g>
</svg>
