<svg preserveAspectRatio="none" width="100%" height="100%" overflow="visible" style="display: block;" viewBox="0 0 19.6 19.6" fill="none" xmlns="http://www.w3.org/2000/svg">
<g id="Illustraciones perros">
<g id="Frame" clip-path="url(#clip0_0_75)">
<path id="Vector" d="M3.30807 16.3427C1.40232 14.4369 1.40232 11.3473 3.30807 9.44151L9.44079 3.30879C11.3465 1.40303 14.4362 1.40303 16.342 3.30879C18.2477 5.21454 18.2477 8.30422 16.342 10.21L10.2093 16.3427C8.30351 18.2485 5.21383 18.2485 3.30807 16.3427Z" fill="var(--fill-0, #A8DC18)"/>
<path id="Vector_2" d="M6.39202 6.35684L3.3253 9.42356C1.41954 11.3293 1.41954 14.419 3.3253 16.3248C5.23106 18.2305 8.32073 18.2305 10.2265 16.3248L13.2932 13.258L6.39202 6.35684Z" fill="var(--fill-0, #005840)"/>
</g>
<path id="Vector_3" d="M6.84101 9.9611L4.47717 12.3249C4.25806 12.5441 3.87157 12.5131 3.61425 12.2557C3.35693 11.9984 3.32593 11.6119 3.54504 11.3928L5.90888 9.02898C6.12799 8.80987 6.51448 8.84087 6.7718 9.09819C7.02912 9.35551 7.06012 9.74199 6.84101 9.9611Z" fill="var(--fill-0, #A8DC18)"/>
</g>
<defs>
<clipPath id="clip0_0_75">
<rect width="15.8933" height="15.8933" fill="white" transform="translate(1.87876 1.87876)"/>
</clipPath>
</defs>
</svg>
