<svg width="19" height="19" viewBox="0 0 19 19" fill="none" xmlns="http://www.w3.org/2000/svg">
  <g clip-path="url(#clip0_321_2725)">
    <path d="M16.5719 0H12.6438C12.21 0 11.8582 0.352325 11.8582 0.786909C11.8582 1.22149 12.21 1.57382 12.6438 1.57382H16.2467L10.8793 6.95005C7.97451 4.65495 3.76216 5.15312 1.47086 8.06274C-0.820441 10.9724 -0.323118 15.1916 2.5817 17.4867C5.48652 19.7818 9.69887 19.2837 11.9902 16.374C13.9093 13.9371 13.9093 10.4997 11.9902 8.06278L17.3576 2.68655V6.29535C17.3576 6.72997 17.7093 7.08226 18.1432 7.08226C18.5771 7.08226 18.9288 6.72993 18.9288 6.29535V2.36076C18.9288 1.05694 17.8736 0 16.5719 0ZM6.75164 17.3122C3.93137 17.3122 1.6451 15.0221 1.6451 12.1972C1.6451 9.3723 3.93137 7.08226 6.75164 7.08226C9.57191 7.08226 11.8582 9.3723 11.8582 12.1972C11.8547 15.0207 9.57047 17.3087 6.75164 17.3122Z" fill="white"/>
  </g>
  <defs>
    <clipPath id="clip0_321_2725">
      <rect width="18.9287" height="18.9287" fill="white"/>
    </clipPath>
  </defs>
</svg>
