<svg preserveAspectRatio="none" width="100%" height="100%" overflow="visible" style="display: block;" viewBox="0 0 28.8 28.8" fill="none" xmlns="http://www.w3.org/2000/svg">
<g id="Illustraciones perros" clip-path="url(#clip0_0_57)">
<path id="Vector" d="M27.9005 9.87598L9.87603 27.9004C8.67695 29.0995 6.73262 29.0995 5.53354 27.9004L0.899602 23.2665C-0.299473 22.0674 -0.299473 20.1231 0.899602 18.924L18.9241 0.899553C20.1231 -0.299523 22.0675 -0.299523 23.2665 0.899553L27.9015 5.5345C29.0996 6.73257 29.0996 8.6769 27.9005 9.87598Z" fill="var(--fill-0, #005840)"/>
<path id="Vector_2" d="M20.0615 15.5033L15.3358 20.229C14.1368 21.428 12.1924 21.428 10.9933 20.229L8.74344 17.9791C7.54437 16.78 7.54437 14.8357 8.74344 13.6366L13.4692 8.91087C14.6682 7.71179 16.6126 7.71179 17.8116 8.91087L20.0615 11.1608C21.2606 12.3598 21.2606 14.3042 20.0615 15.5033Z" fill="var(--fill-0, #A8DC18)"/>
<path id="Vector_3" d="M19.2316 6.43104C19.676 6.43104 20.0363 6.07074 20.0363 5.62628C20.0363 5.18182 19.676 4.82152 19.2316 4.82152C18.7871 4.82152 18.4268 5.18182 18.4268 5.62628C18.4268 6.07074 18.7871 6.43104 19.2316 6.43104Z" fill="var(--fill-0, #A8DC18)"/>
<path id="Vector_4" d="M23.7495 6.43104C24.194 6.43104 24.5543 6.07074 24.5543 5.62628C24.5543 5.18182 24.194 4.82152 23.7495 4.82152C23.3051 4.82152 22.9448 5.18182 22.9448 5.62628C22.9448 6.07074 23.3051 6.43104 23.7495 6.43104Z" fill="var(--fill-0, #A8DC18)"/>
<path id="Vector_5" d="M23.329 9.49781C23.7735 9.49781 24.1338 9.1375 24.1338 8.69304C24.1338 8.24859 23.7735 7.88828 23.329 7.88828C22.8845 7.88828 22.5242 8.24859 22.5242 8.69304C22.5242 9.1375 22.8845 9.49781 23.329 9.49781Z" fill="var(--fill-0, #A8DC18)"/>
<path id="Vector_6" d="M4.28904 23.5267C4.7335 23.5267 5.0938 23.1664 5.0938 22.7219C5.0938 22.2775 4.7335 21.9172 4.28904 21.9172C3.84458 21.9172 3.48428 22.2775 3.48428 22.7219C3.48428 23.1664 3.84458 23.5267 4.28904 23.5267Z" fill="var(--fill-0, #A8DC18)"/>
<path id="Vector_7" d="M5.89856 19.9174C6.34302 19.9174 6.70333 19.5571 6.70333 19.1126C6.70333 18.6681 6.34302 18.3078 5.89856 18.3078C5.45411 18.3078 5.0938 18.6681 5.0938 19.1126C5.0938 19.5571 5.45411 19.9174 5.89856 19.9174Z" fill="var(--fill-0, #A8DC18)"/>
<path id="Vector_8" d="M9.45142 23.8434C9.89588 23.8434 10.2562 23.483 10.2562 23.0386C10.2562 22.5941 9.89588 22.2338 9.45142 22.2338C9.00696 22.2338 8.64666 22.5941 8.64666 23.0386C8.64666 23.483 9.00696 23.8434 9.45142 23.8434Z" fill="var(--fill-0, #A8DC18)"/>
</g>
<defs>
<clipPath id="clip0_0_57">
<rect width="28.8" height="28.8" fill="white"/>
</clipPath>
</defs>
</svg>
