<svg preserveAspectRatio="none" width="100%" height="100%" overflow="visible" style="display: block;" viewBox="0 0 32 32" fill="none" xmlns="http://www.w3.org/2000/svg">
<g id="Illustraciones perros">
<path id="Vector" d="M6.00342 25.6514C5.9728 25.9106 6.17299 26.1119 6.43089 26.0811L12.9106 25.304C13.238 25.2649 13.5536 25.1075 13.7985 24.8613L22.8978 15.7149L16.3156 9.0986L7.21576 18.2456C6.9714 18.4912 6.8142 18.8091 6.77533 19.1381L6.00342 25.6514Z" fill="var(--fill-0, #005840)"/>
<path id="Vector_2" d="M17.2522 7.48336L24.505 14.7737C24.8565 15.1271 24.856 15.6994 24.505 16.0521C24.1535 16.4055 23.5842 16.4049 23.2332 16.0521L15.981 8.76234C15.6295 8.40901 15.6301 7.83669 15.981 7.48395C16.3313 7.13062 16.9013 7.13062 17.2522 7.48336Z" fill="var(--fill-0, #A8DC18)"/>
<path id="Vector_3" d="M12.0351 15.2598L14.1848 17.4206C14.4998 17.7373 14.4998 18.251 14.1848 18.5676C13.8698 18.8843 13.3587 18.8843 13.0437 18.5676L10.894 16.4068C10.579 16.0901 10.579 15.5764 10.894 15.2598C11.209 14.9431 11.7201 14.9431 12.0351 15.2598Z" fill="var(--fill-0, #A8DC18)"/>
<path id="Vector_4" d="M9.83239 17.4739L11.9821 19.6347C12.2971 19.9513 12.2971 20.4651 11.9821 20.7817C11.6671 21.0983 11.156 21.0983 10.841 20.7817L8.6913 18.6209C8.37629 18.3042 8.37629 17.7905 8.6913 17.4739C9.0063 17.1572 9.51738 17.1572 9.83239 17.4739Z" fill="var(--fill-0, #A8DC18)"/>
<path id="Vector_5" d="M14.2377 13.0457L16.3874 15.2065C16.7024 15.5231 16.7024 16.0369 16.3874 16.3535C16.0724 16.6701 15.5613 16.6701 15.2463 16.3535L13.0966 14.1927C12.7816 13.876 12.7816 13.3623 13.0966 13.0457C13.4116 12.729 13.9227 12.729 14.2377 13.0457Z" fill="var(--fill-0, #A8DC18)"/>
<path id="Vector_6" d="M16.4405 10.8315L18.5902 12.9924C18.9053 13.309 18.9053 13.8227 18.5902 14.1394C18.2752 14.456 17.7642 14.456 17.4492 14.1394L15.2995 11.9785C14.9845 11.6619 14.9845 11.1482 15.2995 10.8315C15.6151 10.5143 16.1255 10.5149 16.4405 10.8315Z" fill="var(--fill-0, #A8DC18)"/>
<path id="Vector_7" d="M1.74044 29.0876L9.56026 21.2273C9.91177 20.874 10.4811 20.8746 10.8321 21.2273C11.1836 21.5806 11.183 22.153 10.8321 22.5057L3.01225 30.366C2.66073 30.7194 2.09137 30.7188 1.74044 30.366C1.38893 30.0127 1.38952 29.4404 1.74044 29.0876Z" fill="var(--fill-0, #005840)"/>
<path id="Vector_8" d="M26.0867 1.74959L30.2095 5.89371C30.561 6.24704 30.5604 6.81936 30.2095 7.1721C29.858 7.52544 29.2886 7.52484 28.9377 7.1721L24.8149 3.02798C24.4634 2.67465 24.464 2.10233 24.8149 1.74959C25.1664 1.39626 25.7352 1.39626 26.0867 1.74959Z" fill="var(--fill-0, #A8DC18)"/>
<path id="Vector_9" d="M27.9432 5.03607L20.8794 12.1365C20.5278 12.4898 19.9585 12.4892 19.6075 12.1365C19.256 11.7831 19.2566 11.2108 19.6075 10.8581L26.6714 3.75768C27.0229 3.40435 27.5922 3.40494 27.9432 3.75768C28.2941 4.11042 28.2947 4.68274 27.9432 5.03607Z" fill="var(--fill-0, #A8DC18)"/>
</g>
</svg>
