<svg preserveAspectRatio="none" width="100%" height="100%" overflow="visible" style="display: block;" viewBox="0 0 20.801 27.201" fill="none" xmlns="http://www.w3.org/2000/svg">
<g id="Group 514326">
<path id="Vector" d="M0 24.2675V2.93348C0 1.31308 1.32305 0 2.95576 0H17.8452C19.4769 0 20.801 1.31308 20.801 2.93348V18.7782L13.0568 27.201H2.95576C1.32305 27.2 0 25.8869 0 24.2675Z" fill="var(--fill-0, #005840)"/>
<path id="Vector_2" d="M18.3231 17.0155H3.1531C2.63378 17.0155 2.2125 16.5974 2.2125 16.0819C2.2125 15.5665 2.63378 15.1484 3.1531 15.1484H18.3231C18.8424 15.1484 19.2637 15.5665 19.2637 16.0819C19.2637 16.5974 18.8424 17.0155 18.3231 17.0155Z" fill="var(--fill-0, #A8DC18)"/>
<path id="Vector_3" d="M18.3231 13.4108H3.1531C2.63378 13.4108 2.2125 12.9927 2.2125 12.4773C2.2125 11.9619 2.63378 11.5438 3.1531 11.5438H18.3231C18.8424 11.5438 19.2637 11.9619 19.2637 12.4773C19.2637 12.9927 18.8424 13.4108 18.3231 13.4108Z" fill="var(--fill-0, #A8DC18)"/>
<path id="Vector_4" d="M10.2178 20.6186H3.1531C2.63378 20.6186 2.2125 20.2005 2.2125 19.6851C2.2125 19.1697 2.63378 18.7516 3.1531 18.7516H10.2178C10.7371 18.7516 11.1584 19.1697 11.1584 19.6851C11.1584 20.2005 10.7371 20.6186 10.2178 20.6186Z" fill="var(--fill-0, #A8DC18)"/>
<g id="Vector_5">
<path d="M5.53009 9.23562C4.79916 9.23562 4.20607 8.647 4.20607 7.92158V3.50545C4.20607 2.78003 4.79916 2.19141 5.53009 2.19141C6.26103 2.19141 6.85412 2.78003 6.85412 3.50545V7.92061C6.85412 8.647 6.26103 9.23562 5.53009 9.23562Z" fill="var(--fill-0, #A8DC18)"/>
<path d="M1.98125 5.71352C1.98125 4.93992 2.61317 4.3118 3.39361 4.3118H7.6666C8.44606 4.3118 9.07895 4.93896 9.07895 5.71352C9.07895 6.48711 8.44703 7.11523 7.6666 7.11523H3.39361C2.61317 7.11523 1.98125 6.48711 1.98125 5.71352Z" fill="var(--fill-0, #A8DC18)"/>
</g>
<path id="Vector_6" d="M20.8004 18.7781L13.0562 27.2009V21.7106C13.0562 20.0912 14.3793 18.7781 16.011 18.7781H20.8004Z" fill="var(--fill-0, #A8DC18)"/>
</g>
</svg>
