<svg preserveAspectRatio="none" width="100%" height="100%" overflow="visible" style="display: block;" viewBox="0 0 32 32" fill="none" xmlns="http://www.w3.org/2000/svg">
<g id="Frame 427319082">
<path id="Vector" d="M11.0963 24.3029L7.23695 28.1622C6.87922 28.5199 6.24822 28.4693 5.82811 28.0492C5.40799 27.6291 5.35738 26.9981 5.71511 26.6404L9.57444 22.781C9.93217 22.4233 10.5632 22.4739 10.9833 22.894C11.4034 23.3141 11.454 23.9451 11.0963 24.3029Z" fill="var(--fill-0, #A8DC18)"/>
<path id="Vector_2" d="M21.1803 24.3029L25.0396 28.1622C25.3973 28.5199 26.0283 28.4693 26.4485 28.0492C26.8686 27.6291 26.9192 26.9981 26.5614 26.6404L22.7021 22.781C22.3444 22.4233 21.7134 22.4739 21.2933 22.894C20.8732 23.3141 20.8226 23.9451 21.1803 24.3029Z" fill="var(--fill-0, #A8DC18)"/>
<circle id="Ellipse 2" cx="16" cy="16.8" r="10.8" fill="var(--fill-0, #005840)"/>
<circle id="Ellipse 3" cx="16" cy="16.8" r="8.4" fill="var(--fill-0, #A8DC18)"/>
<path id="Vector_3" d="M20.6963 14.9701L16.837 18.8294C16.4792 19.1871 15.8482 19.1365 15.4281 18.7164C15.008 18.2963 14.9574 17.6653 15.3151 17.3075L19.1744 13.4482C19.5322 13.0905 20.1632 13.1411 20.5833 13.5612C21.0034 13.9813 21.054 14.6123 20.6963 14.9701Z" fill="var(--fill-0, #005840)"/>
<path id="Vector_4" d="M17.2194 11.3159L17.2194 18.1071C17.2194 18.613 16.7374 19.0234 16.1433 19.0234C15.5492 19.0234 15.0672 18.613 15.0672 18.1071L15.0672 11.3159C15.0672 10.81 15.5492 10.3996 16.1433 10.3996C16.7374 10.3996 17.2194 10.81 17.2194 11.3159Z" fill="var(--fill-0, #005840)"/>
<path id="Vector_5" d="M17.2194 4.93346L17.2194 6.37432C17.2194 6.88023 16.7374 7.29063 16.1433 7.29063C15.5492 7.29063 15.0672 6.88023 15.0672 6.37432L15.0672 4.93346C15.0672 4.42756 15.5492 4.01716 16.1433 4.01716C16.7374 4.01716 17.2194 4.42756 17.2194 4.93346Z" fill="var(--fill-0, #005840)"/>
<path id="Vector_6" d="M17.5577 5.21861L14.7835 5.21861C14.2776 5.21861 13.8672 4.73664 13.8672 4.14251C13.8672 3.54838 14.2776 3.06641 14.7835 3.06641L17.5577 3.0664C18.0636 3.0664 18.474 3.54837 18.474 4.14251C18.474 4.73664 18.0636 5.21861 17.5577 5.21861Z" fill="var(--fill-0, #005840)"/>
<path id="Rectangle 6246" d="M22.1331 5.53249C23.4213 4.24429 25.5099 4.24429 26.7981 5.53249L27.5609 6.2953C28.8491 7.5835 28.8491 9.67208 27.5609 10.9603V10.9603L22.1331 5.53249V5.53249Z" fill="var(--fill-0, #A8DC18)"/>
<path id="Rectangle 6247" d="M9.89343 5.53249C8.60523 4.24429 6.51665 4.24429 5.22845 5.53249L4.46564 6.2953C3.17744 7.5835 3.17744 9.67208 4.46564 10.9603V10.9603L9.89343 5.53249V5.53249Z" fill="var(--fill-0, #A8DC18)"/>
</g>
</svg>
