<svg preserveAspectRatio="none" width="100%" height="100%" overflow="visible" style="display: block;" viewBox="0 0 32 32" fill="none" xmlns="http://www.w3.org/2000/svg">
<g id="Illustraciones perros">
<path id="Vector" d="M26.6943 11.7353C26.6943 5.93219 21.9662 1.22004 16.1106 1.16115C10.2372 1.10329 5.37431 5.80305 5.30639 11.6103C5.28968 13.0764 5.57493 14.4732 6.1026 15.747C7.82041 20.5759 13.0031 27.53 15.1023 30.2358C15.5547 30.8195 16.4439 30.8195 16.8974 30.2358C18.9966 27.53 24.1803 20.5759 25.897 15.747C26.4111 14.5104 26.6943 13.1559 26.6943 11.7353Z" fill="var(--fill-0, #005840)"/>
<path id="Vector_2" d="M16 18.0725C19.3423 18.0725 22.0518 15.4002 22.0518 12.1036C22.0518 8.80709 19.3423 6.13472 16 6.13472C12.6577 6.13472 9.94819 8.80709 9.94819 12.1036C9.94819 15.4002 12.6577 18.0725 16 18.0725Z" fill="var(--fill-0, #A8DC18)"/>
</g>
</svg>
