<svg preserveAspectRatio="none" width="100%" height="100%" overflow="visible" style="display: block;" viewBox="0 0 20.9999 23.9999" fill="none" xmlns="http://www.w3.org/2000/svg">
<g id="Group 12">
<path id="path94" d="M9.80482 11.4616L0.0895996 22.0058C0.0905121 22.0077 0.090512 22.0105 0.0914244 22.0124C0.389807 23.1573 1.41179 23.9999 2.62539 23.9999C3.11083 23.9999 3.56616 23.8655 3.95671 23.6304L3.98773 23.6117L14.9229 17.1592L9.80482 11.4616Z" fill="var(--fill-0, #EA4335)"/>
<path id="path98" d="M19.633 9.6661L19.6239 9.65957L14.9027 6.86114L9.58386 11.7012L14.9219 17.1581L19.6175 14.3877C20.4406 13.9323 20.9999 13.0449 20.9999 12.0222C20.9999 11.0051 20.4488 10.1224 19.633 9.6661Z" fill="var(--fill-0, #FBBC04)"/>
<path id="path102" d="M0.0894234 1.99316C0.0310244 2.21338 0 2.44479 0 2.68367V21.3162C0 21.5551 0.0310245 21.7865 0.0903359 22.0058L10.1386 11.7312L0.0894234 1.99316Z" fill="var(--fill-0, #4285F4)"/>
<path id="path106" d="M9.87654 11.9999L14.9043 6.85936L3.98189 0.383511C3.58496 0.139967 3.12142 1.42739e-07 2.62594 1.42739e-07C1.41233 1.42739e-07 0.388528 0.844472 0.0901454 1.99034C0.0901454 1.99128 0.0892334 1.99221 0.0892334 1.99314L9.87654 11.9999Z" fill="var(--fill-0, #34A853)"/>
</g>
</svg>
