<svg preserveAspectRatio="none" width="100%" height="100%" overflow="visible" style="display: block;" viewBox="0 0 36 35.9994" fill="none" xmlns="http://www.w3.org/2000/svg">
<g id="Frame" clip-path="url(#clip0_0_4)">
<path id="Vector" d="M10.125 10.4498C10.125 10.1514 10.2435 9.86529 10.4545 9.65431C10.6655 9.44333 10.9516 9.3248 11.25 9.3248H24.75C25.0484 9.3248 25.3345 9.44333 25.5455 9.65431C25.7565 9.86529 25.875 10.1514 25.875 10.4498C25.875 10.7482 25.7565 11.0343 25.5455 11.2453C25.3345 11.4563 25.0484 11.5748 24.75 11.5748H11.25C10.9516 11.5748 10.6655 11.4563 10.4545 11.2453C10.2435 11.0343 10.125 10.7482 10.125 10.4498ZM11.25 16.0748H24.75C25.0484 16.0748 25.3345 15.9563 25.5455 15.7453C25.7565 15.5343 25.875 15.2482 25.875 14.9498C25.875 14.6514 25.7565 14.3653 25.5455 14.1543C25.3345 13.9433 25.0484 13.8248 24.75 13.8248H11.25C10.9516 13.8248 10.6655 13.9433 10.4545 14.1543C10.2435 14.3653 10.125 14.6514 10.125 14.9498C10.125 15.2482 10.2435 15.5343 10.4545 15.7453C10.6655 15.9563 10.9516 16.0748 11.25 16.0748ZM32.625 3.5498V25.0748C32.6249 25.2665 32.5758 25.4551 32.4823 25.6225C32.3889 25.7899 32.2542 25.9307 32.091 26.0314C31.9279 26.1322 31.7417 26.1895 31.5501 26.1981C31.3586 26.2066 31.168 26.1661 30.9966 26.0803L27 24.082L23.0034 26.0803C22.8471 26.1585 22.6748 26.1992 22.5 26.1992C22.3252 26.1992 22.1529 26.1585 21.9966 26.0803L18 24.082L14.0034 26.0803C13.8471 26.1585 13.6748 26.1992 13.5 26.1992C13.3252 26.1992 13.1529 26.1585 12.9966 26.0803L9 24.082L5.00344 26.0803C4.83196 26.1661 4.64141 26.2066 4.44985 26.1981C4.2583 26.1895 4.07211 26.1322 3.90896 26.0314C3.74581 25.9307 3.61112 25.7899 3.51766 25.6225C3.42421 25.4551 3.3751 25.2665 3.375 25.0748V3.5498C3.375 2.95307 3.61205 2.38077 4.03401 1.95881C4.45597 1.53686 5.02826 1.2998 5.625 1.2998H30.375C30.9717 1.2998 31.544 1.53686 31.966 1.95881C32.3879 2.38077 32.625 2.95307 32.625 3.5498ZM30.375 3.5498H5.625V23.2551L8.49656 21.8179C8.65286 21.7397 8.82523 21.699 9 21.699C9.17477 21.699 9.34714 21.7397 9.50344 21.8179L13.5 23.8176L17.4966 21.8179C17.6529 21.7397 17.8252 21.699 18 21.699C18.1748 21.699 18.3471 21.7397 18.5034 21.8179L22.5 23.8176L26.4966 21.8179C26.6529 21.7397 26.8252 21.699 27 21.699C27.1748 21.699 27.3471 21.7397 27.5034 21.8179L30.375 23.2551V3.5498Z" fill="var(--fill-0, #F896BF)"/>
<path id="Vector_2" d="M31.5 3.625V25L27 22.75L22.5 25L18 22.75L13.5 25L9 22.75L4.5 25V3.625C4.5 3.32663 4.61853 3.04048 4.82951 2.82951C5.04048 2.61853 5.32663 2.5 5.625 2.5H30.375C30.6734 2.5 30.9595 2.61853 31.1705 2.82951C31.3815 3.04048 31.5 3.32663 31.5 3.625Z" fill="var(--fill-0, #F896BF)"/>
<path id="Vector_3" d="M24.8242 15.832H11.3242C11.0259 15.832 10.7397 15.7135 10.5287 15.5025C10.3177 15.2915 10.1992 15.0054 10.1992 14.707C10.1992 14.4087 10.3177 14.1225 10.5287 13.9115C10.7397 13.7006 11.0259 13.582 11.3242 13.582H24.8242C25.1226 13.582 25.4087 13.7006 25.6197 13.9115C25.8307 14.1225 25.9492 14.4087 25.9492 14.707C25.9492 15.0054 25.8307 15.2915 25.6197 15.5025C25.4087 15.7135 25.1226 15.832 24.8242 15.832Z" fill="var(--fill-0, #4E080C)"/>
<g id="Frame_2" clip-path="url(#clip1_0_4)">
<path id="Vector_4" fill-rule="evenodd" clip-rule="evenodd" d="M34.5631 25.65L27.8748 34.1527C27.8218 34.2226 27.7488 34.2746 27.6655 34.3019C27.5822 34.3292 27.4925 34.3305 27.4085 34.3056C27.3244 34.2806 27.25 34.2306 27.1951 34.1623C27.1402 34.0939 27.1074 34.0105 27.1011 33.923L26.7202 29.2101L27.0924 29.0072L30.668 27.4394C30.7766 27.3884 30.8611 27.297 30.9033 27.1847C30.9455 27.0724 30.9421 26.948 30.8939 26.8381C30.8457 26.7282 30.7565 26.6415 30.6453 26.5965C30.5341 26.5514 30.4097 26.5516 30.2986 26.5969L26.723 28.1647L26.3153 28.3038L23.1232 24.8465C23.0632 24.7826 23.024 24.7019 23.011 24.6152C22.9979 24.5285 23.0116 24.4399 23.0502 24.3611C23.0888 24.2824 23.1505 24.2173 23.227 24.1745C23.3035 24.1317 23.3913 24.1132 23.4785 24.1216L34.2615 24.961C34.3377 24.9685 34.4105 24.9963 34.4725 25.0413C34.5344 25.0863 34.5833 25.147 34.614 25.2172C34.6447 25.2873 34.6562 25.3644 34.6472 25.4405C34.6383 25.5166 34.6093 25.5889 34.5631 25.65Z" fill="var(--fill-0, #4E080C)"/>
<path id="Vector_5" fill-rule="evenodd" clip-rule="evenodd" d="M35.1931 24.4442C35.3256 24.5402 35.4301 24.6698 35.4958 24.8196C35.5606 24.9696 35.5842 25.1341 35.5643 25.2963C35.5444 25.4584 35.4817 25.6124 35.3826 25.7423L35.3795 25.7503L28.2469 34.8166C28.1345 34.9652 27.9793 35.0759 27.8022 35.1338C27.6251 35.1917 27.4345 35.194 27.2561 35.1405C27.2306 35.133 27.2055 35.1244 27.1809 35.1148C27.0184 35.0523 26.8772 34.9446 26.7739 34.8044C26.6706 34.6642 26.6097 34.4974 26.5982 34.3237L26.2072 29.4906L27.0943 29.0069L27.5193 34.2541L27.5179 34.2579L27.5235 34.2514L34.6526 25.1893L23.1556 24.2977L23.1518 24.2962L26.7249 28.1644L25.7703 28.49L22.4758 24.9208C22.3485 24.7845 22.2656 24.6127 22.2381 24.4282C22.2106 24.2437 22.2399 24.0553 22.3219 23.8878C22.404 23.7203 22.535 23.5817 22.6976 23.4903C22.8602 23.399 23.0467 23.3592 23.2325 23.3762L34.7341 24.2703L34.7421 24.2735C34.905 24.2893 35.0606 24.3482 35.1931 24.4442Z" fill="var(--fill-0, #4E080C)"/>
</g>
<path id="Vector_6" d="M10.5287 9.2045C10.3177 9.41548 10.1992 9.70163 10.1992 10C10.1992 10.2984 10.3177 10.5845 10.5287 10.7955C10.7397 11.0065 11.0259 11.125 11.3242 11.125H24.8242C25.1226 11.125 25.4087 11.0065 25.6197 10.7955C25.8307 10.5845 25.9492 10.2984 25.9492 10C25.9492 9.70163 25.8307 9.41548 25.6197 9.2045C25.4087 8.99353 25.1226 8.875 24.8242 8.875H11.3242C11.0259 8.875 10.7397 8.99353 10.5287 9.2045Z" fill="var(--fill-0, #4E080C)"/>
</g>
<defs>
<clipPath id="clip0_0_4">
<rect width="36" height="35.9994" fill="white"/>
</clipPath>
<clipPath id="clip1_0_4">
<rect width="13.8" height="13.8036" fill="white" transform="translate(23.582 19.3857) rotate(21.3243)"/>
</clipPath>
</defs>
</svg>
