<svg preserveAspectRatio="none" width="100%" height="100%" overflow="visible" style="display: block;" viewBox="0 0 39.9017 39.8564" fill="none" xmlns="http://www.w3.org/2000/svg">
<g id="Group 514348">
<g id="Vector">
<path fill-rule="evenodd" clip-rule="evenodd" d="M19.9498 39.8408C8.94328 39.8408 0 30.9116 0 19.9204C0 8.92917 8.94112 0 19.9498 0C30.9604 0 39.9017 8.92917 39.9017 19.9204C39.9017 30.9116 30.9604 39.8408 19.9498 39.8408ZM15.368 7.99186C14.8886 7.989 14.4135 8.08109 13.9698 8.26282C13.5264 8.44455 13.1234 8.71227 12.7843 9.05052C12.4449 9.38879 12.1764 9.79084 11.9939 10.2334C11.8113 10.676 11.7185 11.1504 11.7208 11.629C11.7208 13.6545 13.3393 15.2705 15.368 15.2705C15.8474 15.2729 16.3226 15.1802 16.7658 14.9979C17.209 14.8156 17.6117 14.5474 17.9507 14.2089C18.2894 13.8702 18.5574 13.4677 18.7395 13.0249C18.9216 12.5821 19.0138 12.1076 19.011 11.629C19.0132 11.1507 18.9205 10.6768 18.7382 10.2344C18.5559 9.79213 18.2879 9.39025 17.9489 9.05207C17.6102 8.71387 17.2077 8.44603 16.7647 8.26407C16.3217 8.0821 15.847 7.98958 15.368 7.99186ZM13.5639 19.4701C13.5639 20.4352 13.1799 21.3608 12.4962 22.0434C11.8126 22.7258 10.8855 23.1094 9.91874 23.1094C8.952 23.1094 8.02487 22.7258 7.34129 22.0434C6.6577 21.3608 6.27369 20.4352 6.27369 19.4701C6.27369 18.5047 6.6577 17.5791 7.34129 16.8967C8.02487 16.2141 8.952 15.8307 9.91874 15.8307C10.8855 15.8307 11.8126 16.2141 12.4962 16.8967C13.1799 17.5791 13.5639 18.5047 13.5639 19.4701ZM29.9828 23.1094C30.9497 23.1094 31.8766 22.7258 32.5603 22.0434C33.2438 21.3608 33.628 20.4352 33.628 19.4701C33.628 18.5047 33.2438 17.5791 32.5603 16.8967C31.8766 16.2141 30.9497 15.8307 29.9828 15.8307C29.016 15.8307 28.0891 16.2141 27.4054 16.8967C26.7219 17.5791 26.3377 18.5047 26.3377 19.4701C26.3377 20.4352 26.7219 21.3608 27.4054 22.0434C28.0891 22.7258 29.016 23.1094 29.9828 23.1094ZM24.4969 15.2684C24.9763 15.2709 25.4515 15.1785 25.8949 14.9966C26.3381 14.8146 26.7411 14.5465 27.08 14.2082C27.4191 13.8697 27.6874 13.4674 27.8697 13.0249C28.052 12.5821 28.1444 12.1076 28.1418 11.629C28.1442 11.1506 28.0516 10.6764 27.8691 10.2339C27.6868 9.79149 27.4183 9.38952 27.0793 9.05129C26.7404 8.71307 26.3377 8.4453 25.8943 8.26344C25.451 8.08159 24.9761 7.98928 24.4969 7.99186C24.0177 7.98928 23.5426 8.08159 23.0994 8.26344C22.6561 8.4453 22.2534 8.71307 21.9145 9.05129C21.5755 9.38952 21.3071 9.79149 21.1246 10.2339C20.9423 10.6764 20.8496 11.1506 20.8518 11.629C20.8518 13.6545 22.4682 15.2684 24.4969 15.2684ZM26.245 24.6953C26.6398 25.0573 27.0347 25.4192 27.3241 25.8696C27.8074 26.6151 27.9434 27.561 27.7967 28.438C27.6391 29.3839 27.1492 30.2738 26.4219 30.8944C25.6852 31.5238 24.7333 31.8442 23.7652 31.7886C23.2431 31.752 22.7423 31.6011 22.2394 31.4482C21.9632 31.3663 21.6869 31.2822 21.4086 31.2176C20.4521 30.9927 19.4562 30.9927 18.4995 31.2176C18.2275 31.2822 17.9578 31.3641 17.688 31.446C17.1786 31.5968 16.6738 31.752 16.145 31.7886C15.1767 31.8464 14.2239 31.5257 13.4882 30.8944C12.7595 30.2588 12.2736 29.3908 12.1135 28.438C11.9668 27.5567 12.1049 26.6151 12.5884 25.8696C12.8754 25.4171 13.2704 25.0573 13.6675 24.6974C13.8545 24.525 14.0379 24.3505 14.2178 24.1738C14.9278 23.4498 15.4609 22.5578 15.7651 21.5882C15.8532 21.3121 15.9207 21.028 15.9878 20.7456C15.9899 20.737 15.9919 20.7284 15.994 20.7198C16.1235 20.1897 16.2484 19.6597 16.4902 19.177C16.8171 18.5446 17.3148 18.0161 17.927 17.6513C18.5391 17.2865 19.2413 17.0999 19.9541 17.1128C20.3338 17.11 20.705 17.1574 21.0677 17.255C22.069 17.5416 22.9539 18.2462 23.42 19.177C23.6574 19.6597 23.7869 20.1897 23.9143 20.7176C23.9811 21.0105 24.058 21.3007 24.1451 21.5882C24.4471 22.5535 24.9824 23.4498 25.6926 24.1738C25.871 24.3533 26.0565 24.5272 26.245 24.6953Z" fill="#4E080C"/>
<path d="M26.245 24.6953C26.6398 25.0573 27.0347 25.4192 27.3241 25.8696C27.8074 26.6151 27.9434 27.561 27.7967 28.438C27.6391 29.3839 27.1492 30.2738 26.4219 30.8944C25.6852 31.5238 24.7333 31.8442 23.7652 31.7886C23.2431 31.752 22.7423 31.6011 22.2394 31.4482C21.9632 31.3663 21.6869 31.2822 21.4086 31.2176C20.4521 30.9927 19.4562 30.9927 18.4995 31.2176C18.2275 31.2822 17.9578 31.3641 17.688 31.446C17.1786 31.5968 16.6738 31.752 16.145 31.7886C15.1767 31.8464 14.2239 31.5257 13.4882 30.8944C12.7595 30.2588 12.2736 29.3908 12.1135 28.438C11.9668 27.5567 12.1049 26.6151 12.5884 25.8696C12.8754 25.4171 13.2704 25.0573 13.6675 24.6974C13.8545 24.525 14.0379 24.3505 14.2178 24.1738C14.9278 23.4498 15.4609 22.5578 15.7651 21.5882C15.8532 21.3121 15.9207 21.028 15.9878 20.7456L15.994 20.7198C16.1235 20.1897 16.2484 19.6597 16.4902 19.177C16.8171 18.5446 17.3148 18.0161 17.927 17.6513C18.5391 17.2865 19.2413 17.0999 19.9541 17.1128C20.3338 17.11 20.705 17.1574 21.0677 17.255C22.069 17.5416 22.9539 18.2462 23.42 19.177C23.6574 19.6597 23.7869 20.1897 23.9143 20.7176C23.9811 21.0105 24.058 21.3007 24.1451 21.5882C24.4471 22.5535 24.9824 23.4498 25.6926 24.1738C25.871 24.3533 26.0565 24.5272 26.245 24.6953Z" fill="var(--fill-0, #4E080C)"/>
<path d="M15.368 7.99186C14.8886 7.989 14.4135 8.08109 13.9698 8.26282C13.5264 8.44455 13.1234 8.71227 12.7843 9.05052C12.4449 9.38879 12.1764 9.79084 11.9939 10.2334C11.8113 10.676 11.7185 11.1504 11.7208 11.629C11.7208 13.6545 13.3393 15.2705 15.368 15.2705C15.8474 15.2729 16.3226 15.1802 16.7658 14.9979C17.209 14.8156 17.6117 14.5474 17.9507 14.2089C18.2894 13.8702 18.5574 13.4677 18.7395 13.0249C18.9216 12.5821 19.0138 12.1076 19.011 11.629C19.0132 11.1507 18.9205 10.6768 18.7382 10.2344C18.5559 9.79213 18.2879 9.39025 17.9489 9.05207C17.6102 8.71387 17.2077 8.44603 16.7647 8.26407C16.3217 8.0821 15.847 7.98958 15.368 7.99186Z" fill="var(--fill-0, #4E080C)"/>
<path d="M13.5639 19.4701C13.5639 20.4352 13.1799 21.3608 12.4962 22.0434C11.8126 22.7258 10.8855 23.1094 9.91874 23.1094C8.952 23.1094 8.02487 22.7258 7.34129 22.0434C6.6577 21.3608 6.27369 20.4352 6.27369 19.4701C6.27369 18.5047 6.6577 17.5791 7.34129 16.8967C8.02487 16.2141 8.952 15.8307 9.91874 15.8307C10.8855 15.8307 11.8126 16.2141 12.4962 16.8967C13.1799 17.5791 13.5639 18.5047 13.5639 19.4701Z" fill="var(--fill-0, #4E080C)"/>
<path d="M24.4969 15.2684C24.9763 15.2709 25.4515 15.1785 25.8949 14.9966C26.3381 14.8146 26.7411 14.5465 27.08 14.2082C27.4191 13.8697 27.6874 13.4674 27.8697 13.0249C28.052 12.5821 28.1444 12.1076 28.1418 11.629C28.1442 11.1506 28.0516 10.6764 27.8691 10.2339C27.6868 9.79149 27.4183 9.38952 27.0793 9.05129C26.7404 8.71307 26.3377 8.4453 25.8943 8.26344C25.451 8.08159 24.9761 7.98928 24.4969 7.99186C24.0177 7.98928 23.5426 8.08159 23.0994 8.26344C22.6561 8.4453 22.2534 8.71307 21.9145 9.05129C21.5755 9.38952 21.3071 9.79149 21.1246 10.2339C20.9423 10.6764 20.8496 11.1506 20.8518 11.629C20.8518 13.6545 22.4682 15.2684 24.4969 15.2684Z" fill="var(--fill-0, #4E080C)"/>
<path d="M29.9828 23.1094C30.9497 23.1094 31.8766 22.7258 32.5603 22.0434C33.2438 21.3608 33.628 20.4352 33.628 19.4701C33.628 18.5047 33.2438 17.5791 32.5603 16.8967C31.8766 16.2141 30.9497 15.8307 29.9828 15.8307C29.016 15.8307 28.0891 16.2141 27.4054 16.8967C26.7219 17.5791 26.3377 18.5047 26.3377 19.4701C26.3377 20.4352 26.7219 21.3608 27.4054 22.0434C28.0891 22.7258 29.016 23.1094 29.9828 23.1094Z" fill="var(--fill-0, #4E080C)"/>
</g>
<path id="Vector_2" fill-rule="evenodd" clip-rule="evenodd" d="M19.9498 39.8564C8.94328 39.8564 0 30.9273 0 19.936C0 8.94479 8.94112 0.015625 19.9498 0.015625C30.9604 0.015625 39.9017 8.94479 39.9017 19.936C39.9017 30.9273 30.9604 39.8564 19.9498 39.8564ZM26.245 24.7109C26.0565 24.5428 25.871 24.3689 25.6926 24.1894C24.9824 23.4655 24.4471 22.5691 24.1451 21.6038C24.058 21.3163 23.9811 21.0261 23.9143 20.7333C23.7869 20.2054 23.6574 19.6753 23.42 19.1926C22.9539 18.2618 22.069 17.5572 21.0677 17.2706C20.705 17.173 20.3338 17.1256 19.9541 17.1284C19.2413 17.1155 18.5391 17.3021 17.927 17.6669C17.3148 18.0317 16.8171 18.5602 16.4902 19.1926C16.2567 19.6589 16.1321 20.1693 16.0072 20.6813L15.994 20.7354L15.9878 20.7613C15.9207 21.0437 15.8531 21.3278 15.7651 21.6038C15.4609 22.5734 14.9278 23.4655 14.2178 24.1894C14.0379 24.3661 13.8545 24.5407 13.6675 24.713C13.2704 25.0729 12.8754 25.4327 12.5884 25.8852C12.1049 26.6307 11.9668 27.5724 12.1135 28.4536C12.2736 29.4065 12.7595 30.2744 13.4882 30.91C14.2239 31.5414 15.1767 31.862 16.145 31.8042C16.651 31.7692 17.1351 31.6256 17.6223 31.4811L17.688 31.4616C17.9578 31.3798 18.2275 31.2979 18.4995 31.2332C19.4562 31.0083 20.4521 31.0083 21.4086 31.2332C21.6599 31.2916 21.9095 31.3658 22.159 31.4399L22.2394 31.4638C22.7423 31.6168 23.2431 31.7676 23.7652 31.8042C24.7333 31.8598 25.6852 31.5394 26.4219 30.91C27.1492 30.2895 27.6391 29.3996 27.7967 28.4536C27.9434 27.5767 27.8074 26.6307 27.3241 25.8852C27.0347 25.4349 26.6398 25.0729 26.245 24.7109ZM13.5639 19.4857C13.5639 20.4508 13.1799 21.3765 12.4962 22.0591C11.8126 22.7415 10.8855 23.125 9.91874 23.125C8.952 23.125 8.02487 22.7415 7.34129 22.0591C6.6577 21.3765 6.27369 20.4508 6.27369 19.4857C6.27369 18.5204 6.6577 17.5947 7.34129 16.9123C8.02487 16.2297 8.952 15.8464 9.91874 15.8464C10.8855 15.8464 11.8126 16.2297 12.4962 16.9123C13.1799 17.5947 13.5639 18.5204 13.5639 19.4857ZM13.9698 8.27844C14.4135 8.09672 14.8886 8.00462 15.368 8.00749C15.847 8.0052 16.3217 8.09773 16.7647 8.27969C17.2077 8.46166 17.6102 8.72949 17.9489 9.0677C18.2879 9.40588 18.5559 9.80776 18.7382 10.2501C18.9205 10.6924 19.0132 11.1664 19.011 11.6447C19.0138 12.1232 18.9216 12.5977 18.7395 13.0405C18.5574 13.4833 18.2894 13.8858 17.9507 14.2245C17.6117 14.563 17.209 14.8313 16.7658 15.0136C16.3226 15.1959 15.8474 15.2885 15.368 15.2861C13.3393 15.2861 11.7208 13.6701 11.7208 11.6447C11.7185 11.166 11.8113 10.6917 11.9939 10.2491C12.1764 9.80646 12.4449 9.40441 12.7843 9.06615C13.1234 8.7279 13.5264 8.46017 13.9698 8.27844ZM24.4969 15.284C24.9763 15.2866 25.4515 15.1941 25.8949 15.0123C26.3381 14.8302 26.7411 14.5621 27.08 14.2239C27.4191 13.8854 27.6874 13.4831 27.8697 13.0405C28.052 12.5977 28.1444 12.1232 28.1418 11.6447C28.1442 11.1662 28.0516 10.692 27.8691 10.2496C27.6868 9.80711 27.4183 9.40515 27.0793 9.06692C26.7404 8.72869 26.3377 8.46093 25.8943 8.27907C25.451 8.09721 24.9761 8.0049 24.4969 8.00749C24.0177 8.0049 23.5426 8.09721 23.0994 8.27907C22.6561 8.46093 22.2534 8.72869 21.9145 9.06692C21.5755 9.40515 21.3071 9.80711 21.1246 10.2496C20.9423 10.692 20.8496 11.1662 20.8518 11.6447C20.8518 13.6701 22.4682 15.284 24.4969 15.284ZM32.5603 22.0591C31.8766 22.7415 30.9497 23.125 29.9828 23.125C29.016 23.125 28.0891 22.7415 27.4054 22.0591C26.7219 21.3765 26.3377 20.4508 26.3377 19.4857C26.3377 18.5204 26.7219 17.5947 27.4054 16.9123C28.0891 16.2297 29.016 15.8464 29.9828 15.8464C30.9497 15.8464 31.8766 16.2297 32.5603 16.9123C33.2438 17.5947 33.628 18.5204 33.628 19.4857C33.628 20.4508 33.2438 21.3765 32.5603 22.0591Z" fill="var(--fill-0, #F896BF)"/>
</g>
</svg>
