<svg preserveAspectRatio="none" width="100%" height="100%" overflow="visible" style="display: block;" viewBox="0 0 97.8099 97.8099" fill="none" xmlns="http://www.w3.org/2000/svg">
<g id="Container">
<path id="Star 2" d="M46.4273 0.859707C47.8802 -0.286569 49.9297 -0.286569 51.3825 0.859707L54.1842 3.07015C55.2777 3.93288 56.7412 4.16468 58.0478 3.68208L61.3954 2.44558C63.1314 1.80437 65.0805 2.4377 66.1081 3.97683L68.0896 6.94485C68.8629 8.10326 70.1832 8.77596 71.5749 8.72073L75.1408 8.57922C76.9899 8.50584 78.648 9.7105 79.1496 11.4918L80.117 14.9269C80.4945 16.2676 81.5423 17.3154 82.883 17.6929L86.318 18.6602C88.0994 19.1619 89.304 20.8199 89.2306 22.6691L89.0891 26.2349C89.0339 27.6267 89.7066 28.947 90.865 29.7203L93.833 31.7018C95.3722 32.7293 96.0055 34.6785 95.3643 36.4145L94.1278 39.7621C93.6452 41.0687 93.877 42.5322 94.7397 43.6257L96.9502 46.4273C98.0964 47.8802 98.0964 49.9297 96.9502 51.3825L94.7397 54.1842C93.877 55.2777 93.6452 56.7412 94.1278 58.0478L95.3643 61.3954C96.0055 63.1314 95.3722 65.0805 93.833 66.1081L90.865 68.0896C89.7066 68.8629 89.0339 70.1832 89.0891 71.5749L89.2306 75.1408C89.304 76.9899 88.0994 78.648 86.318 79.1496L82.883 80.117C81.5423 80.4945 80.4945 81.5423 80.117 82.883L79.1496 86.318C78.648 88.0994 76.9899 89.304 75.1408 89.2306L71.5749 89.0891C70.1832 89.0339 68.8629 89.7066 68.0896 90.865L66.1081 93.833C65.0805 95.3722 63.1314 96.0055 61.3954 95.3643L58.0478 94.1278C56.7412 93.6452 55.2777 93.877 54.1842 94.7397L51.3825 96.9502C49.9297 98.0964 47.8802 98.0964 46.4273 96.9502L43.6257 94.7397C42.5322 93.877 41.0687 93.6452 39.7621 94.1278L36.4145 95.3643C34.6785 96.0055 32.7293 95.3722 31.7018 93.833L29.7203 90.865C28.947 89.7066 27.6267 89.0339 26.2349 89.0891L22.6691 89.2306C20.8199 89.304 19.1619 88.0994 18.6602 86.318L17.6929 82.883C17.3154 81.5423 16.2676 80.4945 14.9269 80.117L11.4918 79.1496C9.7105 78.648 8.50584 76.9899 8.57922 75.1408L8.72073 71.5749C8.77596 70.1832 8.10326 68.8629 6.94485 68.0896L3.97683 66.1081C2.4377 65.0805 1.80437 63.1314 2.44558 61.3954L3.68208 58.0478C4.16468 56.7412 3.93288 55.2777 3.07015 54.1842L0.859707 51.3825C-0.286569 49.9297 -0.286569 47.8802 0.859707 46.4273L3.07015 43.6257C3.93288 42.5322 4.16468 41.0687 3.68208 39.7621L2.44558 36.4145C1.80437 34.6785 2.4377 32.7293 3.97683 31.7018L6.94485 29.7203C8.10325 28.947 8.77596 27.6267 8.72073 26.2349L8.57922 22.6691C8.50584 20.8199 9.7105 19.1619 11.4918 18.6602L14.9269 17.6929C16.2676 17.3154 17.3154 16.2676 17.6929 14.9269L18.6602 11.4918C19.1619 9.7105 20.8199 8.50584 22.6691 8.57922L26.2349 8.72073C27.6267 8.77596 28.947 8.10326 29.7203 6.94485L31.7018 3.97683C32.7293 2.4377 34.6785 1.80437 36.4145 2.44558L39.7621 3.68208C41.0687 4.16468 42.5322 3.93288 43.6257 3.07015L46.4273 0.859707Z" fill="var(--fill-0, #EAEBEB)"/>
<g id="Frame" clip-path="url(#clip0_0_11)">
<path id="Vector" d="M41.0299 41.3547C41.0299 41.0564 41.1485 40.7702 41.3594 40.5592C41.5704 40.3483 41.8566 40.2297 42.1549 40.2297H55.6549C55.9533 40.2297 56.2395 40.3483 56.4504 40.5592C56.6614 40.7702 56.7799 41.0564 56.7799 41.3547C56.7799 41.6531 56.6614 41.9393 56.4504 42.1502C56.2395 42.3612 55.9533 42.4797 55.6549 42.4797H42.1549C41.8566 42.4797 41.5704 42.3612 41.3594 42.1502C41.1485 41.9393 41.0299 41.6531 41.0299 41.3547ZM42.1549 46.9797H55.6549C55.9533 46.9797 56.2395 46.8612 56.4504 46.6502C56.6614 46.4393 56.7799 46.1531 56.7799 45.8547C56.7799 45.5564 56.6614 45.2702 56.4504 45.0592C56.2395 44.8483 55.9533 44.7297 55.6549 44.7297H42.1549C41.8566 44.7297 41.5704 44.8483 41.3594 45.0592C41.1485 45.2702 41.0299 45.5564 41.0299 45.8547C41.0299 46.1531 41.1485 46.4393 41.3594 46.6502C41.5704 46.8612 41.8566 46.9797 42.1549 46.9797ZM63.5299 34.4547V55.9797C63.5298 56.1715 63.4807 56.36 63.3873 56.5274C63.2938 56.6949 63.1591 56.8356 62.996 56.9364C62.8328 57.0371 62.6466 57.0945 62.4551 57.103C62.2635 57.1116 62.073 57.071 61.9015 56.9852L57.9049 54.9869L53.9084 56.9852C53.7521 57.0634 53.5797 57.1041 53.4049 57.1041C53.2302 57.1041 53.0578 57.0634 52.9015 56.9852L48.9049 54.9869L44.9084 56.9852C44.7521 57.0634 44.5797 57.1041 44.4049 57.1041C44.2302 57.1041 44.0578 57.0634 43.9015 56.9852L39.9049 54.9869L35.9084 56.9852C35.7369 57.071 35.5463 57.1116 35.3548 57.103C35.1632 57.0945 34.977 57.0371 34.8139 56.9364C34.6507 56.8356 34.5161 56.6949 34.4226 56.5274C34.3291 56.36 34.28 56.1715 34.2799 55.9797V34.4547C34.2799 33.858 34.517 33.2857 34.9389 32.8637C35.3609 32.4418 35.9332 32.2047 36.5299 32.2047H61.2799C61.8767 32.2047 62.449 32.4418 62.8709 32.8637C63.2929 33.2857 63.5299 33.858 63.5299 34.4547ZM61.2799 34.4547H36.5299V54.1601L39.4015 52.7229C39.5578 52.6447 39.7302 52.6039 39.9049 52.6039C40.0797 52.6039 40.2521 52.6447 40.4084 52.7229L44.4049 54.7225L48.4015 52.7229C48.5578 52.6447 48.7302 52.6039 48.9049 52.6039C49.0797 52.6039 49.2521 52.6447 49.4084 52.7229L53.4049 54.7225L57.4015 52.7229C57.5578 52.6447 57.7302 52.6039 57.9049 52.6039C58.0797 52.6039 58.2521 52.6447 58.4084 52.7229L61.2799 54.1601V34.4547Z" fill="var(--fill-0, #F896BF)"/>
<path id="Vector_2" d="M62.4049 34.5299V55.9049L57.9049 53.6549L53.4049 55.9049L48.9049 53.6549L44.4049 55.9049L39.9049 53.6549L35.4049 55.9049V34.5299C35.4049 34.2316 35.5235 33.9454 35.7344 33.7344C35.9454 33.5235 36.2316 33.4049 36.5299 33.4049H61.2799C61.5783 33.4049 61.8645 33.5235 62.0754 33.7344C62.2864 33.9454 62.4049 34.2316 62.4049 34.5299Z" fill="var(--fill-0, #F896BF)"/>
<path id="Vector_3" d="M55.7292 46.737H42.2292C41.9308 46.737 41.6446 46.6184 41.4337 46.4075C41.2227 46.1965 41.1042 45.9103 41.1042 45.612C41.1042 45.3136 41.2227 45.0274 41.4337 44.8165C41.6446 44.6055 41.9308 44.487 42.2292 44.487H55.7292C56.0275 44.487 56.3137 44.6055 56.5247 44.8165C56.7356 45.0274 56.8542 45.3136 56.8542 45.612C56.8542 45.9103 56.7356 46.1965 56.5247 46.4075C56.3137 46.6184 56.0275 46.737 55.7292 46.737Z" fill="var(--fill-0, #4E080C)"/>
<g id="Frame_2" clip-path="url(#clip1_0_11)">
<path id="Vector_4" fill-rule="evenodd" clip-rule="evenodd" d="M65.4681 56.555L58.7798 65.0576C58.7268 65.1275 58.6537 65.1796 58.5704 65.2069C58.4871 65.2342 58.3975 65.2354 58.3134 65.2105C58.2294 65.1855 58.1549 65.1356 58.1 65.0672C58.0451 64.9989 58.0123 64.9154 58.006 64.8279L57.6251 60.1151L57.9974 59.9121L61.573 58.3444C61.6816 58.2934 61.766 58.202 61.8082 58.0896C61.8504 57.9773 61.847 57.853 61.7989 57.7431C61.7507 57.6332 61.6615 57.5465 61.5503 57.5014C61.4391 57.4563 61.3146 57.4565 61.2036 57.5018L57.6279 59.0696L57.2202 59.2087L54.0281 55.7514C53.9681 55.6875 53.9289 55.6069 53.9159 55.5202C53.9028 55.4334 53.9165 55.3448 53.9551 55.2661C53.9937 55.1873 54.0554 55.1222 54.1319 55.0794C54.2084 55.0366 54.2962 55.0182 54.3835 55.0265L65.1665 55.8659C65.2427 55.8735 65.3155 55.9012 65.3774 55.9462C65.4394 55.9912 65.4882 56.052 65.5189 56.1221C65.5496 56.1923 65.5611 56.2693 65.5521 56.3454C65.5432 56.4215 65.5142 56.4938 65.4681 56.555Z" fill="var(--fill-0, #4E080C)"/>
<path id="Vector_5" fill-rule="evenodd" clip-rule="evenodd" d="M66.0981 55.3492C66.2305 55.4452 66.335 55.5747 66.4008 55.7245C66.4655 55.8745 66.4891 56.0391 66.4692 56.2012C66.4493 56.3634 66.3866 56.5173 66.2875 56.6472L66.2844 56.6553L59.1518 65.7215C59.0394 65.8701 58.8842 65.9808 58.7071 66.0387C58.53 66.0966 58.3395 66.0989 58.161 66.0454C58.1355 66.0379 58.1105 66.0294 58.0858 66.0198C57.9233 65.9572 57.7821 65.8495 57.6788 65.7093C57.5756 65.5691 57.5146 65.4023 57.5031 65.2286L57.1122 60.3955L57.9993 59.9118L58.4243 65.1591L58.4228 65.1628L58.4284 65.1564L65.5575 56.0943L54.0605 55.2026L54.0567 55.2011L57.6299 59.0693L56.6752 59.395L53.3807 55.8257C53.2534 55.6894 53.1705 55.5176 53.1431 55.3331C53.1156 55.1487 53.1448 54.9602 53.2269 54.7927C53.3089 54.6252 53.4399 54.4866 53.6025 54.3953C53.7652 54.3039 53.9517 54.2641 54.1374 54.2812L65.639 55.1753L65.6471 55.1784C65.8099 55.1942 65.9656 55.2532 66.0981 55.3492Z" fill="var(--fill-0, #4E080C)"/>
</g>
<path id="Vector_6" d="M41.4337 40.1094C41.2227 40.3204 41.1042 40.6066 41.1042 40.9049C41.1042 41.2033 41.2227 41.4895 41.4337 41.7004C41.6446 41.9114 41.9308 42.0299 42.2292 42.0299H55.7292C56.0275 42.0299 56.3137 41.9114 56.5247 41.7004C56.7356 41.4895 56.8542 41.2033 56.8542 40.9049C56.8542 40.6066 56.7356 40.3204 56.5247 40.1094C56.3137 39.8985 56.0275 39.7799 55.7292 39.7799H42.2292C41.9308 39.7799 41.6446 39.8985 41.4337 40.1094Z" fill="var(--fill-0, #4E080C)"/>
</g>
</g>
<defs>
<clipPath id="clip0_0_11">
<rect width="36" height="35.9994" fill="white" transform="translate(30.9049 30.9049)"/>
</clipPath>
<clipPath id="clip1_0_11">
<rect width="13.8" height="13.8036" fill="white" transform="translate(54.487 50.2907) rotate(21.3243)"/>
</clipPath>
</defs>
</svg>
