<svg preserveAspectRatio="none" width="100%" height="100%" overflow="visible" style="display: block;" viewBox="0 0 97.8099 97.8099" fill="none" xmlns="http://www.w3.org/2000/svg">
<g id="Container">
<path id="Star 2" d="M46.4273 0.859707C47.8802 -0.286569 49.9297 -0.286569 51.3825 0.859707L54.1842 3.07015C55.2777 3.93288 56.7412 4.16468 58.0478 3.68208L61.3954 2.44558C63.1314 1.80437 65.0805 2.4377 66.1081 3.97683L68.0896 6.94485C68.8629 8.10326 70.1832 8.77596 71.5749 8.72073L75.1408 8.57922C76.9899 8.50584 78.648 9.7105 79.1496 11.4918L80.117 14.9269C80.4945 16.2676 81.5423 17.3154 82.883 17.6929L86.318 18.6602C88.0994 19.1619 89.304 20.8199 89.2306 22.6691L89.0891 26.2349C89.0339 27.6267 89.7066 28.947 90.865 29.7203L93.833 31.7018C95.3722 32.7293 96.0055 34.6785 95.3643 36.4145L94.1278 39.7621C93.6452 41.0687 93.877 42.5322 94.7397 43.6257L96.9502 46.4273C98.0964 47.8802 98.0964 49.9297 96.9502 51.3825L94.7397 54.1842C93.877 55.2777 93.6452 56.7412 94.1278 58.0478L95.3643 61.3954C96.0055 63.1314 95.3722 65.0805 93.833 66.1081L90.865 68.0896C89.7066 68.8629 89.0339 70.1832 89.0891 71.5749L89.2306 75.1408C89.304 76.9899 88.0994 78.648 86.318 79.1496L82.883 80.117C81.5423 80.4945 80.4945 81.5423 80.117 82.883L79.1496 86.318C78.648 88.0994 76.9899 89.304 75.1408 89.2306L71.5749 89.0891C70.1832 89.0339 68.8629 89.7066 68.0896 90.865L66.1081 93.833C65.0805 95.3722 63.1314 96.0055 61.3954 95.3643L58.0478 94.1278C56.7412 93.6452 55.2777 93.877 54.1842 94.7397L51.3825 96.9502C49.9297 98.0964 47.8802 98.0964 46.4273 96.9502L43.6257 94.7397C42.5322 93.877 41.0687 93.6452 39.7621 94.1278L36.4145 95.3643C34.6785 96.0055 32.7293 95.3722 31.7018 93.833L29.7203 90.865C28.947 89.7066 27.6267 89.0339 26.2349 89.0891L22.6691 89.2306C20.8199 89.304 19.1619 88.0994 18.6602 86.318L17.6929 82.883C17.3154 81.5423 16.2676 80.4945 14.9269 80.117L11.4918 79.1496C9.7105 78.648 8.50584 76.9899 8.57922 75.1408L8.72073 71.5749C8.77596 70.1832 8.10326 68.8629 6.94485 68.0896L3.97683 66.1081C2.4377 65.0805 1.80437 63.1314 2.44558 61.3954L3.68208 58.0478C4.16468 56.7412 3.93288 55.2777 3.07015 54.1842L0.859707 51.3825C-0.286569 49.9297 -0.286569 47.8802 0.859707 46.4273L3.07015 43.6257C3.93288 42.5322 4.16468 41.0687 3.68208 39.7621L2.44558 36.4145C1.80437 34.6785 2.4377 32.7293 3.97683 31.7018L6.94485 29.7203C8.10325 28.947 8.77596 27.6267 8.72073 26.2349L8.57922 22.6691C8.50584 20.8199 9.7105 19.1619 11.4918 18.6602L14.9269 17.6929C16.2676 17.3154 17.3154 16.2676 17.6929 14.9269L18.6602 11.4918C19.1619 9.7105 20.8199 8.50584 22.6691 8.57922L26.2349 8.72073C27.6267 8.77596 28.947 8.10326 29.7203 6.94485L31.7018 3.97683C32.7293 2.4377 34.6785 1.80437 36.4145 2.44558L39.7621 3.68208C41.0687 4.16468 42.5322 3.93288 43.6257 3.07015L46.4273 0.859707Z" fill="var(--fill-0, #EAEBEB)"/>
<g id="Logo">
<rect id="Rectangle 2067" x="28.9049" y="28.3967" width="40.0722" height="40.073" rx="20.0361" fill="var(--fill-0, #F896BF)"/>
<path id="Vector" d="M48.0768 54.116L48.3459 53.7319L48.8457 53.1174L48.9226 53.0406L48.9995 53.1174L49.4992 53.7319L49.7683 54.116C51.8058 56.7278 55.0735 58.2641 59.187 58.5713L59.4945 58.6097L59.4945 58.3025L59.4945 54.769L59.4945 54.5001L59.2254 54.4617C54.9582 54.0008 51.7289 51.2354 51.0754 47.3946C50.9985 46.8953 50.9601 46.3576 50.9601 45.6663L50.9601 43.093L56.0731 43.093L56.3806 43.093L56.3806 42.7857L56.3806 39.4058L56.3806 39.0985L56.0731 39.0985L41.7336 39.0985L41.4261 39.0985L41.4261 39.4058L41.4261 42.8241L41.4261 43.1314L41.7336 43.1314L46.8851 43.1314L46.8851 45.7047C46.8851 46.396 46.8466 46.9337 46.7697 47.433C46.0778 51.2738 42.8869 54.0392 38.6197 54.5001L38.3506 54.5385L38.3506 54.8074L38.3506 58.3025L38.3506 58.6097L38.6582 58.5713C42.7716 58.3025 46.0393 56.7662 48.0768 54.116Z" fill="var(--fill-0, #4E080C)"/>
</g>
</g>
</svg>
