<svg preserveAspectRatio="none" width="100%" height="100%" overflow="visible" style="display: block;" viewBox="0 0 40.0722 40.5082" fill="none" xmlns="http://www.w3.org/2000/svg">
<g id="Logo">
<rect id="Rectangle 2067" width="40.0722" height="40.073" rx="20.0361" fill="var(--fill-0, #F896BF)"/>
<path id="Vector" d="M19.1719 25.7193L19.441 25.3352L19.9407 24.7207L20.0176 24.6439L20.0945 24.7207L20.5943 25.3352L20.8634 25.7193C22.9009 28.331 26.1686 29.8673 30.282 30.1746L30.5896 30.213L30.5896 29.9058L30.5896 26.3722L30.5896 26.1034L30.3205 26.065C26.0533 25.6041 22.824 22.8387 22.1705 18.9979C22.0936 18.4986 22.0551 17.9609 22.0551 17.2696L22.0551 14.6962L27.1681 14.6962L27.4757 14.6962L27.4757 14.389L27.4757 11.0091L27.4757 10.7018L27.1681 10.7018L12.8287 10.7018L12.5212 10.7018L12.5212 11.0091L12.5212 14.4274L12.5212 14.7346L12.8287 14.7346L17.9801 14.7346L17.9801 17.308C17.9801 17.9993 17.9417 18.537 17.8648 19.0363C17.1728 22.8771 13.982 25.6425 9.71478 26.1034L9.44568 26.1418L9.44568 26.4106L9.44568 29.9058L9.44568 30.213L9.75323 30.1746C13.8667 29.9058 17.1344 28.3694 19.1719 25.7193Z" fill="var(--fill-0, #4E080C)"/>
</g>
</svg>
