<svg preserveAspectRatio="none" width="100%" height="100%" overflow="visible" style="display: block;" viewBox="0 0 97.8099 97.8099" fill="none" xmlns="http://www.w3.org/2000/svg">
<g id="Container">
<path id="Star 2" d="M46.4273 0.859707C47.8802 -0.286569 49.9297 -0.286569 51.3825 0.859707L54.1842 3.07015C55.2777 3.93288 56.7412 4.16468 58.0478 3.68208L61.3954 2.44558C63.1314 1.80437 65.0805 2.4377 66.1081 3.97683L68.0896 6.94485C68.8629 8.10326 70.1832 8.77596 71.5749 8.72073L75.1408 8.57922C76.9899 8.50584 78.648 9.7105 79.1496 11.4918L80.117 14.9269C80.4945 16.2676 81.5423 17.3154 82.883 17.6929L86.318 18.6602C88.0994 19.1619 89.304 20.8199 89.2306 22.6691L89.0891 26.2349C89.0339 27.6267 89.7066 28.947 90.865 29.7203L93.833 31.7018C95.3722 32.7293 96.0055 34.6785 95.3643 36.4145L94.1278 39.7621C93.6452 41.0687 93.877 42.5322 94.7397 43.6257L96.9502 46.4273C98.0964 47.8802 98.0964 49.9297 96.9502 51.3825L94.7397 54.1842C93.877 55.2777 93.6452 56.7412 94.1278 58.0478L95.3643 61.3954C96.0055 63.1314 95.3722 65.0805 93.833 66.1081L90.865 68.0896C89.7066 68.8629 89.0339 70.1832 89.0891 71.5749L89.2306 75.1408C89.304 76.9899 88.0994 78.648 86.318 79.1496L82.883 80.117C81.5423 80.4945 80.4945 81.5423 80.117 82.883L79.1496 86.318C78.648 88.0994 76.9899 89.304 75.1408 89.2306L71.5749 89.0891C70.1832 89.0339 68.8629 89.7066 68.0896 90.865L66.1081 93.833C65.0805 95.3722 63.1314 96.0055 61.3954 95.3643L58.0478 94.1278C56.7412 93.6452 55.2777 93.877 54.1842 94.7397L51.3825 96.9502C49.9297 98.0964 47.8802 98.0964 46.4273 96.9502L43.6257 94.7397C42.5322 93.877 41.0687 93.6452 39.7621 94.1278L36.4145 95.3643C34.6785 96.0055 32.7293 95.3722 31.7018 93.833L29.7203 90.865C28.947 89.7066 27.6267 89.0339 26.2349 89.0891L22.6691 89.2306C20.8199 89.304 19.1619 88.0994 18.6602 86.318L17.6929 82.883C17.3154 81.5423 16.2676 80.4945 14.9269 80.117L11.4918 79.1496C9.7105 78.648 8.50584 76.9899 8.57922 75.1408L8.72073 71.5749C8.77596 70.1832 8.10326 68.8629 6.94485 68.0896L3.97683 66.1081C2.4377 65.0805 1.80437 63.1314 2.44558 61.3954L3.68208 58.0478C4.16468 56.7412 3.93288 55.2777 3.07015 54.1842L0.859707 51.3825C-0.286569 49.9297 -0.286569 47.8802 0.859707 46.4273L3.07015 43.6257C3.93288 42.5322 4.16468 41.0687 3.68208 39.7621L2.44558 36.4145C1.80437 34.6785 2.4377 32.7293 3.97683 31.7018L6.94485 29.7203C8.10325 28.947 8.77596 27.6267 8.72073 26.2349L8.57922 22.6691C8.50584 20.8199 9.7105 19.1619 11.4918 18.6602L14.9269 17.6929C16.2676 17.3154 17.3154 16.2676 17.6929 14.9269L18.6602 11.4918C19.1619 9.7105 20.8199 8.50584 22.6691 8.57922L26.2349 8.72073C27.6267 8.77596 28.947 8.10326 29.7203 6.94485L31.7018 3.97683C32.7293 2.4377 34.6785 1.80437 36.4145 2.44558L39.7621 3.68208C41.0687 4.16468 42.5322 3.93288 43.6257 3.07015L46.4273 0.859707Z" fill="var(--fill-0, #EAEBEB)"/>
<g id="Group 514348">
<g id="Vector">
<path fill-rule="evenodd" clip-rule="evenodd" d="M46.4739 68.36C35.4674 68.36 26.5241 59.4308 26.5241 48.4396C26.5241 37.4484 35.4652 28.5192 46.4739 28.5192C57.4845 28.5192 66.4257 37.4484 66.4257 48.4396C66.4257 59.4308 57.4845 68.36 46.4739 68.36ZM41.8921 36.5111C41.4127 36.5082 40.9375 36.6003 40.4939 36.782C40.0504 36.9637 39.6475 37.2315 39.3084 37.5697C38.969 37.908 38.7005 38.31 38.518 38.7526C38.3354 39.1952 38.2426 39.6696 38.2449 40.1482C38.2449 42.1737 39.8634 43.7897 41.8921 43.7897C42.3715 43.7921 42.8466 43.6994 43.2899 43.5171C43.7331 43.3348 44.1358 43.0666 44.4747 42.7281C44.8135 42.3894 45.0815 41.9868 45.2636 41.5441C45.4457 41.1013 45.5379 40.6268 45.5351 40.1482C45.5372 39.6699 45.4446 39.1959 45.2623 38.7536C45.08 38.3113 44.812 37.9094 44.473 37.5713C44.1343 37.2331 43.7318 36.9652 43.2888 36.7833C42.8458 36.6013 42.3711 36.5088 41.8921 36.5111ZM40.0879 47.9893C40.0879 48.9544 39.704 49.88 39.0203 50.5626C38.3367 51.245 37.4096 51.6286 36.4428 51.6286C35.4761 51.6286 34.5489 51.245 33.8654 50.5626C33.1818 49.88 32.7978 48.9544 32.7978 47.9893C32.7978 47.0239 33.1818 46.0983 33.8654 45.4159C34.5489 44.7333 35.4761 44.3499 36.4428 44.3499C37.4096 44.3499 38.3367 44.7333 39.0203 45.4159C39.704 46.0983 40.0879 47.0239 40.0879 47.9893ZM56.5069 51.6286C57.4737 51.6286 58.4007 51.245 59.0844 50.5626C59.7679 49.88 60.1521 48.9544 60.1521 47.9893C60.1521 47.0239 59.7679 46.0983 59.0844 45.4159C58.4007 44.7333 57.4737 44.3499 56.5069 44.3499C55.5401 44.3499 54.6131 44.7333 53.9294 45.4159C53.246 46.0983 52.8618 47.0239 52.8618 47.9893C52.8618 48.9544 53.246 49.88 53.9294 50.5626C54.6131 51.245 55.5401 51.6286 56.5069 51.6286ZM51.021 43.7875C51.5004 43.7901 51.9755 43.6977 52.419 43.5158C52.8622 43.3338 53.2651 43.0657 53.6041 42.7274C53.9432 42.3889 54.2115 41.9866 54.3938 41.5441C54.5761 41.1013 54.6685 40.6268 54.6659 40.1482C54.6683 39.6697 54.5756 39.1956 54.3931 38.7531C54.2108 38.3107 53.9424 37.9087 53.6034 37.5705C53.2645 37.2323 52.8618 36.9645 52.4183 36.7826C51.9751 36.6008 51.5002 36.5085 51.021 36.5111C50.5418 36.5085 50.0667 36.6008 49.6234 36.7826C49.1802 36.9645 48.7775 37.2323 48.4386 37.5705C48.0996 37.9087 47.8311 38.3107 47.6486 38.7531C47.4663 39.1956 47.3737 39.6697 47.3759 40.1482C47.3759 42.1737 48.9923 43.7875 51.021 43.7875ZM52.7691 53.2145C53.1639 53.5764 53.5588 53.9384 53.8482 54.3888C54.3315 55.1343 54.4675 56.0802 54.3207 56.9572C54.1632 57.9031 53.6732 58.793 52.946 59.4136C52.2093 60.043 51.2574 60.3634 50.2892 60.3078C49.7672 60.2712 49.2664 60.1203 48.7635 59.9674C48.4873 59.8855 48.211 59.8014 47.9326 59.7368C46.9761 59.5118 45.9802 59.5118 45.0235 59.7368C44.7516 59.8014 44.4818 59.8833 44.2121 59.9652C43.7027 60.116 43.1978 60.2712 42.6691 60.3078C41.7007 60.3655 40.7479 60.0449 40.0123 59.4136C39.2836 58.7779 38.7977 57.91 38.6376 56.9572C38.4909 56.0759 38.629 55.1343 39.1125 54.3888C39.3995 53.9363 39.7945 53.5764 40.1916 53.2166C40.3786 53.0442 40.562 52.8697 40.7419 52.693C41.4519 51.969 41.985 51.077 42.2892 50.1073C42.3772 49.8313 42.4448 49.5472 42.5119 49.2648C42.5139 49.2562 42.516 49.2476 42.518 49.239C42.6475 48.7089 42.7725 48.1789 43.0143 47.6962C43.3411 47.0638 43.8389 46.5352 44.451 46.1705C45.0632 45.8057 45.7654 45.6191 46.4782 45.632C46.8579 45.6292 47.2291 45.6766 47.5918 45.7742C48.5931 46.0608 49.478 46.7654 49.9441 47.6962C50.1815 48.1789 50.311 48.7089 50.4384 49.2368C50.5052 49.5297 50.5821 49.8199 50.6691 50.1073C50.9712 51.0727 51.5064 51.969 52.2166 52.693C52.3951 52.8725 52.5806 53.0464 52.7691 53.2145Z" fill="#4E080C"/>
<path d="M52.7691 53.2145C53.1639 53.5764 53.5588 53.9384 53.8482 54.3888C54.3315 55.1343 54.4675 56.0802 54.3207 56.9572C54.1632 57.9031 53.6732 58.793 52.946 59.4136C52.2093 60.043 51.2574 60.3634 50.2892 60.3078C49.7672 60.2712 49.2664 60.1203 48.7635 59.9674C48.4873 59.8855 48.211 59.8014 47.9326 59.7368C46.9761 59.5118 45.9802 59.5118 45.0235 59.7368C44.7516 59.8014 44.4818 59.8833 44.2121 59.9652C43.7027 60.116 43.1978 60.2712 42.6691 60.3078C41.7007 60.3655 40.7479 60.0449 40.0123 59.4136C39.2836 58.7779 38.7977 57.91 38.6376 56.9572C38.4909 56.0759 38.629 55.1343 39.1125 54.3888C39.3995 53.9363 39.7945 53.5764 40.1916 53.2166C40.3786 53.0442 40.562 52.8697 40.7419 52.693C41.4519 51.969 41.985 51.077 42.2892 50.1073C42.3772 49.8313 42.4448 49.5472 42.5119 49.2648L42.518 49.239C42.6475 48.7089 42.7725 48.1789 43.0143 47.6962C43.3411 47.0638 43.8389 46.5352 44.451 46.1705C45.0632 45.8057 45.7654 45.6191 46.4782 45.632C46.8579 45.6292 47.2291 45.6766 47.5918 45.7742C48.5931 46.0608 49.478 46.7654 49.9441 47.6962C50.1815 48.1789 50.311 48.7089 50.4384 49.2368C50.5052 49.5297 50.5821 49.8199 50.6691 50.1073C50.9712 51.0727 51.5064 51.969 52.2166 52.693C52.3951 52.8725 52.5806 53.0464 52.7691 53.2145Z" fill="var(--fill-0, #4E080C)"/>
<path d="M41.8921 36.5111C41.4127 36.5082 40.9375 36.6003 40.4939 36.782C40.0504 36.9637 39.6475 37.2315 39.3084 37.5697C38.969 37.908 38.7005 38.31 38.518 38.7526C38.3354 39.1952 38.2426 39.6696 38.2449 40.1482C38.2449 42.1737 39.8634 43.7897 41.8921 43.7897C42.3715 43.7921 42.8466 43.6994 43.2899 43.5171C43.7331 43.3348 44.1358 43.0666 44.4747 42.7281C44.8135 42.3894 45.0815 41.9868 45.2636 41.5441C45.4457 41.1013 45.5379 40.6268 45.5351 40.1482C45.5372 39.6699 45.4446 39.1959 45.2623 38.7536C45.08 38.3113 44.812 37.9094 44.473 37.5713C44.1343 37.2331 43.7318 36.9652 43.2888 36.7833C42.8458 36.6013 42.3711 36.5088 41.8921 36.5111Z" fill="var(--fill-0, #4E080C)"/>
<path d="M40.0879 47.9893C40.0879 48.9544 39.704 49.88 39.0203 50.5626C38.3367 51.245 37.4096 51.6286 36.4428 51.6286C35.4761 51.6286 34.5489 51.245 33.8654 50.5626C33.1818 49.88 32.7978 48.9544 32.7978 47.9893C32.7978 47.0239 33.1818 46.0983 33.8654 45.4159C34.5489 44.7333 35.4761 44.3499 36.4428 44.3499C37.4096 44.3499 38.3367 44.7333 39.0203 45.4159C39.704 46.0983 40.0879 47.0239 40.0879 47.9893Z" fill="var(--fill-0, #4E080C)"/>
<path d="M51.021 43.7875C51.5004 43.7901 51.9755 43.6977 52.419 43.5158C52.8622 43.3338 53.2651 43.0657 53.6041 42.7274C53.9432 42.3889 54.2115 41.9866 54.3938 41.5441C54.5761 41.1013 54.6685 40.6268 54.6659 40.1482C54.6683 39.6697 54.5756 39.1956 54.3931 38.7531C54.2108 38.3107 53.9424 37.9087 53.6034 37.5705C53.2645 37.2323 52.8618 36.9645 52.4183 36.7826C51.9751 36.6008 51.5002 36.5085 51.021 36.5111C50.5418 36.5085 50.0667 36.6008 49.6234 36.7826C49.1802 36.9645 48.7775 37.2323 48.4386 37.5705C48.0996 37.9087 47.8311 38.3107 47.6486 38.7531C47.4663 39.1956 47.3737 39.6697 47.3759 40.1482C47.3759 42.1737 48.9923 43.7875 51.021 43.7875Z" fill="var(--fill-0, #4E080C)"/>
<path d="M56.5069 51.6286C57.4737 51.6286 58.4007 51.245 59.0844 50.5626C59.7679 49.88 60.1521 48.9544 60.1521 47.9893C60.1521 47.0239 59.7679 46.0983 59.0844 45.4159C58.4007 44.7333 57.4737 44.3499 56.5069 44.3499C55.5401 44.3499 54.6131 44.7333 53.9294 45.4159C53.246 46.0983 52.8618 47.0239 52.8618 47.9893C52.8618 48.9544 53.246 49.88 53.9294 50.5626C54.6131 51.245 55.5401 51.6286 56.5069 51.6286Z" fill="var(--fill-0, #4E080C)"/>
</g>
<path id="Vector_2" fill-rule="evenodd" clip-rule="evenodd" d="M46.3762 68.3756C35.3697 68.3756 26.4264 59.4464 26.4264 48.4552C26.4264 37.464 35.3675 28.5348 46.3762 28.5348C57.3869 28.5348 66.3281 37.464 66.3281 48.4552C66.3281 59.4464 57.3869 68.3756 46.3762 68.3756ZM52.6715 53.2301C52.4829 53.062 52.2974 52.8881 52.119 52.7086C51.4088 51.9847 50.8736 51.0883 50.5715 50.123C50.4844 49.8355 50.4075 49.5453 50.3407 49.2525C50.2134 48.7246 50.0839 48.1945 49.8464 47.7118C49.3803 46.781 48.4954 46.0764 47.4941 45.7898C47.1315 45.6922 46.7602 45.6448 46.3805 45.6476C45.6678 45.6347 44.9655 45.8213 44.3534 46.1861C43.7412 46.5509 43.2435 47.0794 42.9166 47.7118C42.6831 48.1781 42.5585 48.6885 42.4336 49.2005L42.4204 49.2546L42.4142 49.2805C42.3471 49.5629 42.2796 49.847 42.1915 50.123C41.8873 51.0926 41.3542 51.9847 40.6442 52.7086C40.4643 52.8853 40.281 53.0599 40.0939 53.2322C39.6968 53.5921 39.3018 53.9519 39.0148 54.4044C38.5313 55.1499 38.3932 56.0916 38.5399 56.9728C38.7 57.9257 39.1859 58.7936 39.9147 59.4292C40.6503 60.0605 41.6031 60.3812 42.5714 60.3234C43.0774 60.2884 43.5615 60.1448 44.0487 60.0003L44.1144 59.9808C44.3842 59.8989 44.654 59.8171 44.9259 59.7524C45.8826 59.5275 46.8785 59.5275 47.835 59.7524C48.0863 59.8108 48.3359 59.885 48.5854 59.9591L48.6658 59.983C49.1687 60.136 49.6695 60.2868 50.1916 60.3234C51.1597 60.379 52.1117 60.0586 52.8484 59.4292C53.5756 58.8087 54.0656 57.9188 54.2231 56.9728C54.3698 56.0959 54.2338 55.1499 53.7505 54.4044C53.4612 53.9541 53.0662 53.5921 52.6715 53.2301ZM39.9903 48.0049C39.9903 48.97 39.6063 49.8956 38.9226 50.5783C38.239 51.2607 37.3119 51.6442 36.3452 51.6442C35.3784 51.6442 34.4513 51.2607 33.7677 50.5783C33.0841 49.8956 32.7001 48.97 32.7001 48.0049C32.7001 47.0396 33.0841 46.1139 33.7677 45.4315C34.4513 44.7489 35.3784 44.3656 36.3452 44.3656C37.3119 44.3656 38.239 44.7489 38.9226 45.4315C39.6063 46.1139 39.9903 47.0396 39.9903 48.0049ZM40.3962 36.7976C40.8399 36.6159 41.315 36.5238 41.7944 36.5267C42.2734 36.5244 42.7481 36.6169 43.1911 36.7989C43.6341 36.9809 44.0366 37.2487 44.3754 37.5869C44.7143 37.9251 44.9823 38.3269 45.1646 38.7692C45.3469 39.2116 45.4396 39.6856 45.4374 40.1639C45.4402 40.6424 45.348 41.1169 45.1659 41.5597C44.9838 42.0025 44.7158 42.405 44.3771 42.7437C44.0381 43.0822 43.6354 43.3505 43.1922 43.5328C42.749 43.715 42.2739 43.8077 41.7944 43.8053C39.7658 43.8053 38.1472 42.1893 38.1472 40.1639C38.1449 39.6852 38.2377 39.2109 38.4204 38.7683C38.6029 38.3257 38.8713 37.9236 39.2107 37.5853C39.5499 37.2471 39.9528 36.9794 40.3962 36.7976ZM50.9233 43.8032C51.4028 43.8058 51.8779 43.7133 52.3213 43.5315C52.7645 43.3494 53.1675 43.0813 53.5064 42.7431C53.8456 42.4045 54.1138 42.0023 54.2961 41.5597C54.4784 41.1169 54.5708 40.6424 54.5683 40.1639C54.5706 39.6854 54.478 39.2112 54.2955 38.7688C54.1132 38.3263 53.8447 37.9243 53.5058 37.5861C53.1668 37.2479 52.7641 36.9801 52.3207 36.7983C51.8774 36.6164 51.4025 36.5241 50.9233 36.5267C50.4441 36.5241 49.969 36.6164 49.5258 36.7983C49.0826 36.9801 48.6798 37.2479 48.3409 37.5861C48.002 37.9243 47.7335 38.3263 47.551 38.7688C47.3687 39.2112 47.276 39.6854 47.2782 40.1639C47.2782 42.1893 48.8947 43.8032 50.9233 43.8032ZM58.9867 50.5783C58.303 51.2607 57.3761 51.6442 56.4093 51.6442C55.4424 51.6442 54.5155 51.2607 53.8318 50.5783C53.1483 49.8956 52.7641 48.97 52.7641 48.0049C52.7641 47.0396 53.1483 46.1139 53.8318 45.4315C54.5155 44.7489 55.4424 44.3656 56.4093 44.3656C57.3761 44.3656 58.303 44.7489 58.9867 45.4315C59.6702 46.1139 60.0544 47.0396 60.0544 48.0049C60.0544 48.97 59.6702 49.8956 58.9867 50.5783Z" fill="var(--fill-0, #F896BF)"/>
</g>
</g>
</svg>
