<svg preserveAspectRatio="none" width="100%" height="100%" overflow="visible" style="display: block;" viewBox="0 0 36 35.9934" fill="none" xmlns="http://www.w3.org/2000/svg">
<g id="Frame">
<g id="Vector">
<path d="M2.39956 23.9972H5.9989V29.9961H2.39956V23.9972Z" fill="#4E080C"/>
<path d="M2.39956 23.9972H5.9989V29.9961H2.39956V23.9972Z" fill="var(--fill-0, #4E080C)"/>
<path fill-rule="evenodd" clip-rule="evenodd" d="M7.00227 21.5977H2.39956C1.76316 21.5977 1.15282 21.8505 0.702815 22.3005C0.25281 22.7505 0 23.3608 0 23.9972L0 29.9961C0 30.6325 0.25281 31.2429 0.702815 31.6929C1.15282 32.1429 1.76316 32.3957 2.39956 32.3957H7.00227V21.5977ZM5.9989 23.9972H2.39956V29.9961H5.9989V23.9972Z" fill="var(--fill-0, #4E080C)"/>
</g>
<path id="Vector 89" d="M6 21.6752V32.4002H16.4156C16.8204 32.4002 17.2238 32.352 17.6172 32.2566L26.4729 30.1098C26.7737 30.0369 27.0672 29.9367 27.3498 29.8106L32.6614 27.4401C34.5005 26.6194 35.3178 24.4566 34.481 22.6247C33.7536 21.0323 31.9918 20.1875 30.2947 20.6173L21.8744 22.7497C21.742 22.7832 21.6059 22.8002 21.4693 22.8002H16.9875C16.3455 22.8002 15.825 22.2797 15.825 21.6377C15.825 20.9957 16.3455 20.4752 16.9875 20.4752H21.0519C21.2164 20.4752 21.3799 20.4506 21.5371 20.4022L22.2115 20.1947C23.2355 19.8797 23.6851 18.6753 23.1339 17.7567C22.8357 17.2597 22.2954 16.9502 21.7158 16.9502H11.2741C10.8273 16.9502 10.3995 17.1314 10.0887 17.4524L6 21.6752Z" fill="var(--fill-0, #F896BF)"/>
<circle id="Ellipse 36" cx="26" cy="6.89258" r="5" fill="var(--fill-0, #F896BF)"/>
<circle id="Ellipse 35" cx="30" cy="11.8926" r="5" fill="var(--fill-0, #4E080C)"/>
</g>
</svg>
