<svg preserveAspectRatio="none" width="100%" height="100%" overflow="visible" style="display: block;" viewBox="0 0 97.8099 97.8099" fill="none" xmlns="http://www.w3.org/2000/svg">
<g id="Container">
<path id="Star 2" d="M46.4273 0.859707C47.8802 -0.286569 49.9297 -0.286569 51.3825 0.859707L54.1842 3.07015C55.2777 3.93288 56.7412 4.16468 58.0478 3.68208L61.3954 2.44558C63.1314 1.80437 65.0805 2.4377 66.1081 3.97683L68.0896 6.94485C68.8629 8.10326 70.1832 8.77596 71.5749 8.72073L75.1408 8.57922C76.9899 8.50584 78.648 9.7105 79.1496 11.4918L80.117 14.9269C80.4945 16.2676 81.5423 17.3154 82.883 17.6929L86.318 18.6602C88.0994 19.1619 89.304 20.8199 89.2306 22.6691L89.0891 26.2349C89.0339 27.6267 89.7066 28.947 90.865 29.7203L93.833 31.7018C95.3722 32.7293 96.0055 34.6785 95.3643 36.4145L94.1278 39.7621C93.6452 41.0687 93.877 42.5322 94.7397 43.6257L96.9502 46.4273C98.0964 47.8802 98.0964 49.9297 96.9502 51.3825L94.7397 54.1842C93.877 55.2777 93.6452 56.7412 94.1278 58.0478L95.3643 61.3954C96.0055 63.1314 95.3722 65.0805 93.833 66.1081L90.865 68.0896C89.7066 68.8629 89.0339 70.1832 89.0891 71.5749L89.2306 75.1408C89.304 76.9899 88.0994 78.648 86.318 79.1496L82.883 80.117C81.5423 80.4945 80.4945 81.5423 80.117 82.883L79.1496 86.318C78.648 88.0994 76.9899 89.304 75.1408 89.2306L71.5749 89.0891C70.1832 89.0339 68.8629 89.7066 68.0896 90.865L66.1081 93.833C65.0805 95.3722 63.1314 96.0055 61.3954 95.3643L58.0478 94.1278C56.7412 93.6452 55.2777 93.877 54.1842 94.7397L51.3825 96.9502C49.9297 98.0964 47.8802 98.0964 46.4273 96.9502L43.6257 94.7397C42.5322 93.877 41.0687 93.6452 39.7621 94.1278L36.4145 95.3643C34.6785 96.0055 32.7293 95.3722 31.7018 93.833L29.7203 90.865C28.947 89.7066 27.6267 89.0339 26.2349 89.0891L22.6691 89.2306C20.8199 89.304 19.1619 88.0994 18.6602 86.318L17.6929 82.883C17.3154 81.5423 16.2676 80.4945 14.9269 80.117L11.4918 79.1496C9.7105 78.648 8.50584 76.9899 8.57922 75.1408L8.72073 71.5749C8.77596 70.1832 8.10326 68.8629 6.94485 68.0896L3.97683 66.1081C2.4377 65.0805 1.80437 63.1314 2.44558 61.3954L3.68208 58.0478C4.16468 56.7412 3.93288 55.2777 3.07015 54.1842L0.859707 51.3825C-0.286569 49.9297 -0.286569 47.8802 0.859707 46.4273L3.07015 43.6257C3.93288 42.5322 4.16468 41.0687 3.68208 39.7621L2.44558 36.4145C1.80437 34.6785 2.4377 32.7293 3.97683 31.7018L6.94485 29.7203C8.10325 28.947 8.77596 27.6267 8.72073 26.2349L8.57922 22.6691C8.50584 20.8199 9.7105 19.1619 11.4918 18.6602L14.9269 17.6929C16.2676 17.3154 17.3154 16.2676 17.6929 14.9269L18.6602 11.4918C19.1619 9.7105 20.8199 8.50584 22.6691 8.57922L26.2349 8.72073C27.6267 8.77596 28.947 8.10326 29.7203 6.94485L31.7018 3.97683C32.7293 2.4377 34.6785 1.80437 36.4145 2.44558L39.7621 3.68208C41.0687 4.16468 42.5322 3.93288 43.6257 3.07015L46.4273 0.859707Z" fill="var(--fill-0, #EAEBEB)"/>
<g id="Frame" clip-path="url(#clip0_0_4)">
<g id="Vector">
<path d="M33.3045 54.9052H36.9038V60.9041H33.3045V54.9052Z" fill="#4E080C"/>
<path d="M33.3045 54.9052H36.9038V60.9041H33.3045V54.9052Z" fill="var(--fill-0, #4E080C)"/>
<path fill-rule="evenodd" clip-rule="evenodd" d="M37.9072 52.5056H33.3045C32.6681 52.5056 32.0578 52.7584 31.6077 53.2084C31.1577 53.6584 30.9049 54.2687 30.9049 54.9052V60.9041C30.9049 61.5405 31.1577 62.1508 31.6077 62.6008C32.0578 63.0508 32.6681 63.3036 33.3045 63.3036H37.9072V52.5056ZM36.9038 54.9052H33.3045V60.9041H36.9038V54.9052Z" fill="var(--fill-0, #4E080C)"/>
</g>
<path id="Vector 89" d="M36.9049 52.5831V63.3081H47.3206C47.7254 63.3081 48.1287 63.2599 48.5221 63.1646L57.3778 61.0177C57.6786 60.9448 57.9721 60.8447 58.2547 60.7185L63.5663 58.3481C65.4055 57.5273 66.2227 55.3646 65.3859 53.5327C64.6585 51.9402 62.8967 51.0954 61.1996 51.5252L52.7793 53.6576C52.6469 53.6912 52.5108 53.7081 52.3743 53.7081H47.8924C47.2504 53.7081 46.7299 53.1877 46.7299 52.5456C46.7299 51.9036 47.2504 51.3831 47.8924 51.3831H51.9568C52.1213 51.3831 52.2849 51.3585 52.4421 51.3102L53.1165 51.1027C54.1404 50.7876 54.59 49.5833 54.0388 48.6646C53.7406 48.1676 53.2003 47.8581 52.6207 47.8581H42.179C41.7322 47.8581 41.3045 48.0394 40.9936 48.3604L36.9049 52.5831Z" fill="var(--fill-0, #F896BF)"/>
<circle id="Ellipse 36" cx="56.9049" cy="37.8005" r="5" fill="var(--fill-0, #F896BF)"/>
<circle id="Ellipse 35" cx="60.9049" cy="42.8005" r="5" fill="var(--fill-0, #4E080C)"/>
</g>
</g>
<defs>
<clipPath id="clip0_0_4">
<rect width="36" height="35.9934" fill="white" transform="translate(30.9049 30.9079)"/>
</clipPath>
</defs>
</svg>
