<svg width="92" height="31" viewBox="0 0 92.4004 30.8003" fill="none" xmlns="http://www.w3.org/2000/svg">
<g id="Group 13">
<g id="Vector">
<path d="M14.6177 0.340404H20.9299V18.7179H17.1758V3.50894L12.4251 18.6846H8.53809L3.7541 3.54229V18.7179H0V0.340404H6.41187L10.5314 14.4154L14.6177 0.340404Z" fill="#4E080C"/>
<path d="M22.4614 10.4284V0.170254H26.2191V10.162C26.2191 13.7923 27.6491 15.6241 30.4424 15.6241C33.2358 15.6241 34.6657 13.7923 34.6657 10.162V0.170254H38.4567V10.4284C38.4567 15.8906 35.5635 18.8881 30.4424 18.8881C25.3213 18.8881 22.4614 15.8906 22.4614 10.4284Z" fill="#4E080C"/>
<path d="M40.0129 12.5836H43.8263C43.6925 14.7417 45.1308 15.9702 47.7065 15.9702C49.9477 15.9702 51.2857 15.0073 51.2857 13.5796C51.2857 9.4958 40.2471 12.982 40.2471 5.8104C40.2471 2.1914 43.0904 8.13901e-05 47.4724 8.13901e-05C52.2558 8.13901e-05 55.166 2.58982 54.6977 6.47444H50.8509C51.1519 4.31632 49.8139 3.12105 47.372 3.12105C45.3315 3.12105 44.0604 4.0175 44.0604 5.37878C44.0604 9.4626 55.1326 6.07601 55.1326 13.148C55.1326 16.8334 52.1889 19.0579 47.6062 19.0579C42.7559 19.0911 39.6784 16.5678 40.0129 12.5836Z" fill="#4E080C"/>
<path d="M69.6302 10.2643L69.2986 10.0304L68.768 9.59599L68.7016 9.52916L68.768 9.46234L69.2986 9.02796L69.6302 8.79406C71.8851 7.02314 73.2116 4.18298 73.4769 0.607714L73.5101 0.340404H69.9618L69.9286 0.5743C69.5307 4.28322 67.143 7.08997 63.8269 7.658C63.3958 7.72483 62.9315 7.75824 62.3346 7.75824H60.1128V3.04691H56.664V16.0448H60.146V11.3001H62.3678C62.9647 11.3001 63.429 11.3335 63.8601 11.4003C67.1762 12.0018 69.5638 14.7751 69.9618 18.484L69.9949 18.7179H73.5101L73.4769 18.4506C73.2448 14.8754 71.9183 12.0352 69.6302 10.2643Z" fill="#4E080C"/>
<path d="M92.4 0.382082L85.3677 11.3387V18.6763H81.6194V11.3055L74.4213 0.382082H78.7335L83.4106 8.0185L88.2868 0.382082H92.4Z" fill="#4E080C"/>
</g>
<g id="Vector_2">
<path d="M53.6474 28.3628C54.3035 28.9897 54.5586 30.0452 54.672 30.4618C54.7376 30.7051 54.9919 30.85 55.2388 30.7846C55.4857 30.7191 55.6326 30.4688 55.5663 30.2255C55.4533 29.8089 55.1389 28.7697 55.3889 27.903C55.6125 27.0297 56.4116 26.2841 56.7205 25.9796C56.9018 25.8013 56.9018 25.512 56.7205 25.3337C56.5396 25.1558 56.2461 25.1558 56.0656 25.3337C55.7567 25.6386 55.0006 26.4266 54.1142 26.6466C53.2354 26.8927 52.1807 26.5831 51.7581 26.4714C51.5112 26.4064 51.2572 26.5504 51.1912 26.7942C51.1245 27.0379 51.271 27.2882 51.5183 27.3536C51.9409 27.465 53.0114 27.7161 53.6474 28.3628Z" fill="var(--fill-0, black)"/>
<path d="M61.0552 28.7362V30.0039C60.7981 30.1063 60.4181 30.2453 59.8058 30.2453C58.5442 30.2453 57.7846 29.6115 57.7846 28.072C57.7846 26.5325 58.6363 25.8987 59.9161 25.8987C60.541 25.8987 61.0308 26.0256 61.0308 26.0256V27.1726H60.4612V26.6353L60.3632 26.5446C60.2344 26.5205 60.0875 26.5022 59.9161 26.5022C59.0893 26.5022 58.8259 27.0757 58.8259 27.9875C58.8259 29.0559 59.1016 29.6539 59.9773 29.6539H60.1795V28.7362L60.0693 28.6276H59.8367V28.1144H61.3373V28.6276H61.1595L61.0552 28.7362Z" fill="var(--fill-0, black)"/>
<path d="M64.8461 30.0039C64.5948 30.1125 64.2275 30.2453 63.6334 30.2453C62.3595 30.2453 61.5999 29.5873 61.5999 28.0778C61.5999 26.5683 62.4697 25.8983 63.7436 25.8983C64.3191 25.8983 64.7726 26.0252 64.7726 26.0252V27.1722H64.1785V26.659L64.0742 26.5563C63.97 26.5442 63.8661 26.5321 63.7436 26.5321C62.9169 26.5321 62.6412 27.1418 62.6412 28.0171C62.6412 29.0313 62.9228 29.5869 63.7926 29.5869C63.9214 29.5869 64.0316 29.5869 64.1418 29.5749L64.252 29.4662V28.9106H64.8461V30.0039Z" fill="var(--fill-0, black)"/>
<path d="M66.9957 25.8986C68.0551 25.8986 68.8332 26.5991 68.8332 28.072C68.8332 29.5449 68.0555 30.2453 66.9957 30.2453C65.9359 30.2453 65.1581 29.5449 65.1581 28.072C65.1581 26.5991 65.9359 25.8986 66.9957 25.8986ZM66.9957 29.5994C67.5838 29.5994 67.792 29.1104 67.792 28.072C67.792 27.0336 67.5838 26.5446 66.9957 26.5446C66.4075 26.5446 66.1993 27.0336 66.1993 28.072C66.1993 29.1104 66.4075 29.5994 66.9957 29.5994Z" fill="var(--fill-0, black)"/>
<path d="M72.3424 26.2732H71.9075V25.9594H73.3038V26.2732H72.9547L72.8626 26.3577L71.5824 30.1974H71.0555L69.7326 26.3515L69.6528 26.2732H69.2977V25.9594H70.8351V26.2732H70.4247L70.3512 26.3577L71.3988 29.5394L72.4096 26.3577L72.3424 26.2732Z" fill="var(--fill-0, black)"/>
<path d="M75.4969 28.7424H73.5555C73.5922 29.5453 73.984 29.8836 74.6149 29.8836C74.9577 29.8836 75.2457 29.7991 75.4112 29.7267V30.0405C75.203 30.1554 74.8965 30.2457 74.4371 30.2457C73.6163 30.2457 72.9795 29.7625 72.9795 28.6338C72.9795 27.5051 73.6044 26.9495 74.3577 26.9495C75.0316 26.9495 75.5826 27.4023 75.5826 28.2476V28.6642L75.4969 28.7424ZM73.5551 28.3862H75.0189V28.211C75.0189 27.5771 74.7373 27.2933 74.3451 27.2933C73.9042 27.2933 73.604 27.6495 73.5551 28.3862Z" fill="var(--fill-0, black)"/>
<path d="M75.8887 30.185V29.8891H76.2928L76.3785 29.7983V27.4136L76.2928 27.3229H75.8887V27.0091H76.6483C76.8506 27.0091 76.9118 27.1118 76.9118 27.2505V27.4194H76.924C77.1077 27.2201 77.4569 26.9487 77.9226 26.9487C78.621 26.9487 78.8659 27.3832 78.8659 27.9147V29.7983L78.9579 29.8891H79.362V30.185H77.8554V29.8891H78.2228L78.3085 29.7983V27.9992C78.3085 27.6854 78.2228 27.3774 77.782 27.3774C77.4636 27.3774 77.2001 27.4922 76.9367 27.7636V29.7983L77.0287 29.8891H77.3961V30.185H75.8887Z" fill="var(--fill-0, black)"/>
<path d="M80.3534 27.3237V29.7987L80.4392 29.8894H81.1987V30.1853C81.1987 30.1853 80.5861 30.2457 80.3475 30.2457C79.9861 30.2457 79.7961 30.1067 79.7961 29.7142V27.3237H79.3489V27.0219H79.7104L79.7961 26.9374L80.0042 26.1404H80.3534V27.0219H81.07V27.3237H80.3534Z" fill="var(--fill-0, black)"/>
<path d="M83.912 27.0095C84.1079 27.0095 84.1632 27.1122 84.1632 27.2508V29.7987L84.2553 29.8894H84.6593V30.1853H83.8938C83.6916 30.1853 83.6426 30.0826 83.6426 29.944V29.7808H83.6304C83.4404 29.9802 83.1038 30.2457 82.6444 30.2457C81.9216 30.2457 81.7134 29.8112 81.7134 29.2797V27.4144L81.6277 27.3237H81.2173V27.0098H82.0136C82.2095 27.0098 82.2708 27.1247 82.2708 27.2754V29.2011C82.2708 29.5091 82.3628 29.8229 82.8463 29.8229C83.1098 29.8229 83.3547 29.7142 83.6059 29.4487V27.414L83.5202 27.3233H83.1098V27.0095H83.912Z" fill="var(--fill-0, black)"/>
<path d="M85.9818 29.8894H86.4534V30.1853H84.8426V29.8894H85.2467L85.3324 29.7987V27.414L85.2467 27.3233H84.8426V27.0095H85.6022C85.8045 27.0095 85.8657 27.1122 85.8657 27.2508V27.4381H85.8779C86.0004 27.2991 86.3496 26.9491 86.8642 26.9491C86.9622 26.9491 87.0298 26.9612 87.0847 26.9674V27.9637H86.7355V27.5109L86.6434 27.4264C86.3006 27.4506 86.0371 27.6258 85.8902 27.7827V29.7991L85.9818 29.8894Z" fill="var(--fill-0, black)"/>
<path d="M89.7671 28.7424H87.8257C87.8624 29.5453 88.2543 29.8836 88.8851 29.8836C89.2279 29.8836 89.5159 29.7991 89.6814 29.7267V30.0405C89.4732 30.1554 89.1667 30.2457 88.7073 30.2457C87.8865 30.2457 87.2498 29.7625 87.2498 28.6338C87.2498 27.5051 87.8747 26.9495 88.6279 26.9495C89.3018 26.9495 89.8528 27.4023 89.8528 28.2476V28.6642L89.7671 28.7424ZM87.8253 28.3862H89.2892V28.211C89.2892 27.5771 89.0075 27.2933 88.6153 27.2933C88.1745 27.2933 87.8743 27.6495 87.8253 28.3862Z" fill="var(--fill-0, black)"/>
<path d="M91.1386 30.2457C90.52 30.2457 90.1341 30.1129 90.1341 30.1129V29.3584H90.4955V29.7691L90.5749 29.8536C90.7096 29.8778 90.8996 29.9019 91.163 29.9019C91.5916 29.9019 91.8737 29.7026 91.8737 29.3584C91.8737 29.0625 91.6959 28.9118 91.1204 28.7728C90.3608 28.5855 90.1586 28.2596 90.1586 27.8372C90.1586 27.3057 90.6057 26.9495 91.3712 26.9495C91.8859 26.9495 92.2714 27.0523 92.2714 27.0523V27.801H91.91V27.3965L91.8365 27.3299C91.7263 27.3057 91.5549 27.2816 91.3467 27.2816C90.9118 27.2816 90.6669 27.4747 90.6669 27.7586C90.6669 28.0182 90.7771 28.1752 91.3467 28.3141C92.1063 28.5014 92.4002 28.767 92.4002 29.2497C92.4002 29.8836 91.8673 30.2457 91.1386 30.2457Z" fill="var(--fill-0, black)"/>
<path d="M44.899 29.4352C44.6699 29.4352 44.4635 29.3868 44.2853 29.2929C44.1072 29.1989 43.9686 29.0651 43.8753 28.8943L43.83 29.3669H43.4002V25.3809H43.8753V27.0095C43.9658 26.8728 44.0959 26.7504 44.2627 26.6394C44.4295 26.5283 44.6445 26.4742 44.9046 26.4742C45.1874 26.4742 45.4334 26.5397 45.6399 26.6678C45.8463 26.7959 46.0075 26.9725 46.1206 27.1974C46.2337 27.4223 46.2903 27.6757 46.2903 27.9604C46.2903 28.2451 46.2337 28.4928 46.1206 28.7178C46.0075 28.9427 45.8463 29.1164 45.637 29.2445C45.4278 29.3726 45.1818 29.4352 44.899 29.4352ZM44.8481 29.0195C45.0404 29.0195 45.2072 28.974 45.3514 28.8857C45.4956 28.7975 45.6059 28.6722 45.6879 28.5099C45.7699 28.3476 45.8095 28.1626 45.8095 27.9547C45.8095 27.7469 45.7699 27.5732 45.6936 27.4109C45.6172 27.2486 45.507 27.1234 45.3627 27.0294C45.2185 26.9355 45.0488 26.8899 44.8481 26.8899C44.6586 26.8899 44.4918 26.9355 44.3475 27.0237C44.2033 27.112 44.0902 27.2372 44.0082 27.3967C43.9262 27.5561 43.8866 27.7412 43.8866 27.9547C43.8866 28.1512 43.9262 28.3305 44.0054 28.4928C44.0845 28.6551 44.1948 28.7832 44.339 28.8772C44.4833 28.9711 44.6529 29.0195 44.8481 29.0195Z" fill="var(--fill-0, black)"/>
<path d="M47.0312 30.6196L47.6533 29.253L46.4486 26.5425H46.9633L47.8908 28.7405L48.8749 26.5425H49.367L47.5289 30.6196H47.0312Z" fill="var(--fill-0, black)"/>
</g>
</g>
</svg>
