<svg preserveAspectRatio="none" width="100%" height="100%" overflow="visible" style="display: block;" viewBox="0 0 214.768 44.2974" fill="none" xmlns="http://www.w3.org/2000/svg">
<g id="Group 13">
<g id="Vector">
<path d="M33.9764 0.791102H48.6481V43.5064H39.9223V8.15581L28.88 43.4289H19.8453L8.72577 8.23333V43.5064H0V0.791102H14.9033L24.4785 33.5059L33.9764 0.791102Z" fill="#85003C"/>
<path d="M52.2077 24.2389V0.395616H60.9419V23.6196C60.9419 32.0577 64.2655 36.3154 70.7582 36.3154C77.2508 36.3154 80.5744 32.0577 80.5744 23.6196V0.395616H89.3859V24.2389C89.3859 36.9347 82.6614 43.9019 70.7582 43.9019C58.855 43.9019 52.2077 36.9347 52.2077 24.2389Z" fill="#85003C"/>
<path d="M93.0031 29.2482H101.867C101.556 34.2643 104.899 37.1197 110.886 37.1197C116.095 37.1197 119.205 34.8817 119.205 31.5633C119.205 22.0712 93.5474 30.1742 93.5474 13.5051C93.5474 5.09342 100.156 8.13901e-05 110.341 8.13901e-05C121.46 8.13901e-05 128.224 6.01948 127.135 15.0486H118.194C118.894 10.0324 115.784 7.25423 110.108 7.25423C105.365 7.25423 102.411 9.33787 102.411 12.5019C102.411 21.994 128.146 14.1225 128.146 30.5601C128.146 39.1262 121.304 44.2967 110.652 44.2967C99.3786 44.3738 92.2256 38.5088 93.0031 29.2482Z" fill="#85003C"/>
<path d="M161.843 23.8574L161.073 23.3137L159.839 22.3041L159.685 22.1488L159.839 21.9934L161.073 20.9838L161.843 20.4401C167.085 16.3239 170.168 9.72248 170.784 1.41242L170.862 0.791102H162.614L162.537 1.33475C161.612 9.95548 156.063 16.4793 148.355 17.7996C147.353 17.9549 146.274 18.0326 144.886 18.0326H139.722V7.0819H131.706V37.2933H139.799V26.265H144.963C146.351 26.265 147.43 26.3426 148.432 26.4979C156.14 27.8959 161.689 34.342 162.614 42.9628L162.691 43.5064H170.862L170.784 42.8851C170.245 34.575 167.162 27.9736 161.843 23.8574Z" fill="#85003C"/>
<path d="M214.768 0.887975L198.423 26.3547V43.4096H189.71V26.2775L172.979 0.887975H183.003L193.874 18.6375L205.207 0.887975H214.768Z" fill="#85003C"/>
</g>
</g>
</svg>
