<svg width="115" height="28" viewBox="0 0 115.172 28.3503" fill="none" xmlns="http://www.w3.org/2000/svg">
<path id="Vector" fill-rule="evenodd" clip-rule="evenodd" d="M12.1901 0.000289215C5.43916 -0.0457795 -0.106697 5.63042 0.00155845 12.1704C0.00155845 18.0584 5.39834 22.9337 9.33814 26.4925C9.77473 26.8858 10.1926 27.2632 10.5839 27.6256C10.9549 27.98 11.5263 28.3503 12.1901 28.3503C12.8555 28.3503 13.4261 27.98 13.797 27.6256C14.1998 27.2517 14.632 26.861 15.0836 26.4526C19.0101 22.8973 24.3794 18.0362 24.3794 12.1704C24.4725 5.63042 18.9266 -0.0466655 12.1901 0.000289215ZM12.1901 20.376C7.6646 20.376 3.98747 16.7046 3.98747 12.1855C3.98747 7.66631 7.66371 3.99498 12.1901 3.99498C16.7172 3.99498 20.3935 7.66631 20.3935 12.1855C20.3935 16.7046 16.7172 20.376 12.1901 20.376ZM10.3062 7.28093C10.1091 7.27975 9.91373 7.31761 9.73131 7.39233C9.54899 7.46705 9.38332 7.57713 9.24387 7.7162C9.10434 7.85529 8.99395 8.02059 8.91891 8.20258C8.84382 8.38456 8.80566 8.57959 8.8066 8.77639C8.8066 9.60917 9.47209 10.2736 10.3062 10.2736C10.5033 10.2746 10.6987 10.2365 10.8809 10.1616C11.0631 10.0866 11.2287 9.9763 11.3681 9.83712C11.5074 9.69785 11.6176 9.53236 11.6924 9.3503C11.7673 9.16824 11.8052 8.97315 11.8041 8.77639C11.8049 8.57974 11.7668 8.38485 11.6919 8.20298C11.6169 8.02113 11.5067 7.85589 11.3674 7.71684C11.2281 7.57779 11.0626 7.46766 10.8805 7.39285C10.6983 7.31803 10.5031 7.27999 10.3062 7.28093ZM9.5644 12.0003C9.5644 12.3971 9.40653 12.7777 9.12542 13.0584C8.84436 13.339 8.46316 13.4967 8.06567 13.4967C7.66819 13.4967 7.28699 13.339 7.00592 13.0584C6.72486 12.7777 6.56697 12.3971 6.56697 12.0003C6.56697 11.6034 6.72486 11.2228 7.00592 10.9422C7.28699 10.6616 7.66819 10.504 8.06567 10.504C8.46316 10.504 8.84436 10.6616 9.12542 10.9422C9.40653 11.2228 9.5644 11.6034 9.5644 12.0003ZM16.3152 13.4967C16.7128 13.4967 17.0939 13.339 17.375 13.0584C17.656 12.7777 17.814 12.3971 17.814 12.0003C17.814 11.6034 17.656 11.2228 17.375 10.9422C17.0939 10.6616 16.7128 10.504 16.3152 10.504C15.9177 10.504 15.5366 10.6616 15.2555 10.9422C14.9745 11.2228 14.8165 11.6034 14.8165 12.0003C14.8165 12.3971 14.9745 12.7777 15.2555 13.0584C15.5366 13.339 15.9177 13.4967 16.3152 13.4967ZM14.0597 10.2727C14.2568 10.2738 14.4521 10.2358 14.6344 10.161C14.8167 10.0862 14.9824 9.97595 15.1217 9.83685C15.2612 9.69767 15.3715 9.53227 15.4464 9.3503C15.5214 9.16824 15.5594 8.97315 15.5583 8.77639C15.5593 8.57966 15.5212 8.3847 15.4461 8.20278C15.3712 8.02086 15.2608 7.85559 15.1214 7.71652C14.9821 7.57746 14.8165 7.46736 14.6342 7.39259C14.4519 7.31782 14.2567 7.27986 14.0597 7.28093C13.8626 7.27986 13.6673 7.31782 13.485 7.39259C13.3028 7.46736 13.1372 7.57746 12.9979 7.71652C12.8585 7.85559 12.7481 8.02086 12.6731 8.20278C12.5981 8.3847 12.56 8.57966 12.5609 8.77639C12.5609 9.60917 13.2255 10.2727 14.0597 10.2727ZM14.7784 14.1487C14.9407 14.2976 15.1031 14.4464 15.2221 14.6315C15.4208 14.9381 15.4767 15.327 15.4164 15.6876C15.3516 16.0765 15.1502 16.4424 14.8511 16.6976C14.5482 16.9563 14.1568 17.0881 13.7588 17.0652C13.5441 17.0502 13.3382 16.9881 13.1315 16.9252C13.0179 16.8916 12.9043 16.857 12.7898 16.8304C12.3966 16.738 11.9871 16.738 11.5937 16.8304C11.4819 16.857 11.371 16.8907 11.2601 16.9244C11.0507 16.9864 10.8431 17.0502 10.6257 17.0652C10.2275 17.089 9.83577 16.9571 9.53331 16.6976C9.23368 16.4362 9.0339 16.0793 8.96808 15.6876C8.90775 15.3252 8.96454 14.9381 9.16334 14.6315C9.28135 14.4455 9.44374 14.2975 9.60702 14.1496C9.68392 14.0787 9.75931 14.007 9.83329 13.9343C10.1252 13.6366 10.3444 13.2699 10.4695 12.8712C10.5068 12.7542 10.5351 12.6338 10.5636 12.5142C10.6168 12.2962 10.6682 12.0783 10.7676 11.8798C10.902 11.6198 11.1066 11.4025 11.3583 11.2525C11.61 11.1025 11.8988 11.0258 12.1918 11.0311C12.3479 11.0299 12.5006 11.0494 12.6497 11.0896C13.0614 11.2074 13.4252 11.4971 13.6169 11.8798C13.7145 12.0783 13.7677 12.2962 13.8201 12.5133C13.8476 12.6337 13.8792 12.753 13.915 12.8712C14.0392 13.2681 14.2593 13.6366 14.5513 13.9343C14.6246 14.0081 14.7 14.0796 14.7775 14.1487M90.4064 6.07428C90.4064 6.62057 90.1884 7.14449 89.8022 7.53078C89.415 7.91706 88.8905 8.13408 88.343 8.13408C87.7959 8.13408 87.2711 7.91706 86.8842 7.53078C86.4974 7.14449 86.2799 6.62057 86.2799 6.07428C86.2799 5.52798 86.4974 5.00407 86.8842 4.61777C87.2711 4.23148 87.7959 4.01447 88.343 4.01447C88.8905 4.01447 89.415 4.23148 89.8022 4.61777C90.1884 5.00407 90.4064 5.52798 90.4064 6.07428ZM29.1843 6.47384V9.70928H33.6769V21.572H37.3504V9.70928H41.9504V6.47384H29.1843ZM50.9587 10.0973L50.9497 10.1301L50.0092 13.9131C49.8109 13.7983 49.5959 13.7149 49.3721 13.6659C49.0994 13.6016 48.8199 13.5698 48.5398 13.5711C48.2221 13.5711 47.9269 13.6245 47.6542 13.7314C47.3915 13.8317 47.1548 13.9901 46.962 14.1948C46.7725 14.4032 46.6226 14.6447 46.5202 14.9071C46.4074 15.2037 46.3525 15.5192 46.3587 15.8364V21.5711H42.8821V10.1186H46.1635V10.1292L46.2344 11.8701C46.322 11.7343 46.4173 11.6028 46.5202 11.4758C46.9027 10.9995 47.3762 10.6037 47.9133 10.3117C48.0416 10.242 48.1718 10.1812 48.3037 10.1292C48.7232 9.96372 49.1704 9.87947 49.6214 9.88115C49.88 9.88115 50.1204 9.90215 50.3429 9.94405C50.5665 9.98897 50.7718 10.0395 50.9587 10.0955V10.0973ZM59.9882 11.506V10.1177H63.4248V21.5702H59.9243V20.2059C59.7108 20.4539 59.4662 20.679 59.1905 20.881C58.7708 21.1849 58.3037 21.4175 57.808 21.5693C57.3739 21.7018 56.922 21.7669 56.4682 21.7625C56.0021 21.7653 55.5382 21.7002 55.091 21.5693C54.6622 21.4437 54.2558 21.2515 53.8869 20.9997C53.1297 20.4887 52.528 19.7835 52.0821 18.884C51.6366 17.9857 51.413 16.9997 51.413 15.8338C51.4124 14.669 51.6354 13.6402 52.0821 12.7472C52.5293 11.8565 53.1415 11.156 53.9188 10.6457C54.2487 10.4276 54.6057 10.2537 54.9809 10.1283C55.496 9.96089 56.0347 9.87708 56.5764 9.88027C57.1229 9.88027 57.6234 9.95938 58.0777 10.1177L58.0938 10.123L58.1044 10.1266L58.1088 10.1283C58.532 10.2751 58.9267 10.4936 59.2757 10.7742C59.5436 10.9915 59.7811 11.2349 59.9882 11.5042M58.8018 18.4854C59.1911 18.242 59.493 17.8936 59.7078 17.44C59.9243 16.987 60.0325 16.4513 60.0325 15.8329C60.0325 15.2154 59.9243 14.6767 59.7078 14.2258C59.5121 13.795 59.1983 13.4283 58.8027 13.168C58.4123 12.9173 57.9358 12.7915 57.4185 12.7915C56.8997 12.7915 56.4492 12.917 56.0671 13.168C55.6855 13.4214 55.3868 13.774 55.1709 14.2258C54.9549 14.6788 54.847 15.2145 54.847 15.8329C54.847 16.4513 54.9552 16.9866 55.1718 17.4391C55.3877 17.8921 55.6864 18.2406 56.068 18.4845C56.4495 18.7308 56.8843 18.8522 57.4176 18.8522C57.9511 18.8522 58.4126 18.7299 58.8018 18.4854ZM73.3196 18.2045C73.0533 18.3912 72.7617 18.5314 72.4446 18.6254C72.108 18.7228 71.7587 18.77 71.4082 18.7653C70.8758 18.7653 70.4005 18.6357 69.9822 18.3764C69.5648 18.1198 69.2249 17.7547 68.9991 17.3204C68.7578 16.8617 68.6354 16.35 68.6432 15.832C68.6432 15.2573 68.7583 14.7473 68.9885 14.302C69.2192 13.8561 69.5433 13.507 69.961 13.2548C70.378 13.0032 70.8605 12.8774 71.4082 12.8774C71.7678 12.878 72.1134 12.9352 72.4446 13.0493C72.7759 13.1644 73.0782 13.3228 73.3515 13.5241C73.6248 13.7267 73.8623 13.9423 74.064 14.1709L75.9434 11.9286C75.44 11.2818 74.76 10.7786 73.9034 10.4189C73.6289 10.3037 73.3459 10.2069 73.0542 10.1283C72.4114 9.95929 71.7491 9.87593 71.0843 9.88027C70.4567 9.88027 69.8664 9.96292 69.3132 10.1283C68.8901 10.2548 68.4837 10.4319 68.1029 10.6555C67.2307 11.1659 66.5109 11.8997 66.0177 12.7808C65.5066 13.6785 65.251 14.6956 65.251 15.832C65.251 16.9689 65.5066 17.9866 66.0177 18.8849C66.5111 19.7654 67.231 20.4985 68.1029 21.0085C68.517 21.2524 68.9577 21.4391 69.425 21.5684C69.9456 21.7131 70.4987 21.7855 71.0843 21.7855C71.697 21.7871 72.3075 21.7143 72.9025 21.5684C73.2365 21.4848 73.5638 21.377 73.8821 21.246C74.7523 20.8869 75.4326 20.3979 75.923 19.7788L74.0649 17.5153C73.8342 17.7881 73.5857 18.0185 73.3196 18.2063V18.2045ZM84.8815 12.8535V10.1159H82.6561V7.22954H79.1999V10.1177H77.1679V12.8552H79.1999V21.5702H82.6561V12.8552L84.8815 12.8535ZM104.099 10.1159L104.092 10.1283L99.0638 21.5684H96.3422L91.551 10.1283L91.5466 10.1168H95.3703L95.3747 10.1292L97.819 16.9058L100.313 10.1283L100.317 10.1168L104.099 10.1159ZM113.699 11.5193C114.196 12.0486 114.579 12.6739 114.825 13.3567L114.822 13.3514C115.056 13.9851 115.172 14.6708 115.172 15.4085C115.172 15.4912 115.17 15.5748 115.168 15.6592L115.146 16.5868H107.269C107.333 16.8393 107.43 17.0714 107.552 17.2867C107.819 17.7562 108.208 18.1168 108.719 18.3773C109.23 18.6354 109.839 18.7647 110.545 18.7653C111.034 18.7653 111.47 18.6933 111.852 18.5492C112.232 18.4056 112.646 18.1611 113.093 17.8156L114.714 20.1013C114.282 20.4795 113.803 20.7989 113.287 21.0511C112.795 21.2919 112.277 21.4766 111.743 21.6012C111.229 21.722 110.704 21.7838 110.177 21.7855C109.543 21.7897 108.91 21.7168 108.294 21.5684C107.798 21.4472 107.32 21.2625 106.871 21.0192C105.935 20.5106 105.209 19.8137 104.69 18.9283C104.172 18.0424 103.913 17.0324 103.913 15.8984C103.913 15.0207 104.058 14.2158 104.346 13.4834C104.619 12.7732 105.03 12.1241 105.555 11.5733C106.075 11.031 106.705 10.605 107.402 10.3232C107.581 10.2488 107.764 10.1839 107.95 10.1283C108.534 9.9608 109.138 9.87725 109.746 9.88027C110.359 9.87965 110.934 9.96239 111.469 10.1283C111.636 10.1815 111.8 10.2423 111.959 10.3108C112.63 10.599 113.21 11.0019 113.699 11.5193ZM107.259 14.6466H111.972V14.6227C111.947 14.2789 111.831 13.9478 111.636 13.6632C111.441 13.3822 111.176 13.1561 110.868 13.0067C110.531 12.844 110.162 12.762 109.788 12.7675C109.227 12.7675 108.748 12.8792 108.353 13.1024C107.959 13.3231 107.645 13.6631 107.457 14.0734C107.37 14.2568 107.304 14.449 107.259 14.6466ZM86.6145 10.1177V21.5702H90.0715V10.1186L86.6145 10.1177Z" fill="var(--fill-0, #1A73E8)"/>
</svg>
